<svg width="20" height="20" viewBox="0 0 20 20" fill="none" xmlns="http://www.w3.org/2000/svg">
<path fill-rule="evenodd" clip-rule="evenodd" d="M10 18.7158C14.8136 18.7158 18.7158 14.8136 18.7158 10C18.7158 5.1864 14.8136 1.28421 10 1.28421C5.1864 1.28421 1.28421 5.1864 1.28421 10C1.28421 14.8136 5.1864 18.7158 10 18.7158ZM10 19C14.9706 19 19 14.9706 19 10C19 5.02944 14.9706 1 10 1C5.02944 1 1 5.02944 1 10C1 14.9706 5.02944 19 10 19Z"/>
<path fill-rule="evenodd" clip-rule="evenodd" d="M0.5 10C0.5 4.75329 4.75329 0.5 10 0.5C15.2467 0.5 19.5 4.75329 19.5 10C19.5 15.2467 15.2467 19.5 10 19.5C4.75329 19.5 0.5 15.2467 0.5 10ZM10 1.78421C5.46254 1.78421 1.78421 5.46254 1.78421 10C1.78421 14.5375 5.46254 18.2158 10 18.2158C14.5375 18.2158 18.2158 14.5375 18.2158 10C18.2158 5.46254 14.5375 1.78421 10 1.78421Z"/>
<path d="M9.52801 4.2H10.872V9.128H15.8V10.472H10.872V15.4H9.52801V10.472H4.60001V9.128H9.52801V4.2Z"  />
<path d="M10.8716 15.4081C10.8716 15.7265 10.5704 15.9846 10.1989 15.9846C9.82746 15.9846 9.52632 15.7265 9.52632 15.4081C9.52632 15.0897 9.82746 14.8316 10.1989 14.8316C10.5704 14.8316 10.8716 15.0897 10.8716 15.4081Z" />
<path d="M10.8716 4.22919C10.8716 4.54761 10.5704 4.80573 10.1989 4.80573C9.82746 4.80573 9.52632 4.54761 9.52632 4.22919C9.52632 3.91078 9.82746 3.65265 10.1989 3.65265C10.5704 3.65265 10.8716 3.91078 10.8716 4.22919Z" />
<path d="M15.7871 9.12843C16.1055 9.12843 16.3636 9.42958 16.3636 9.80106C16.3636 10.1725 16.1055 10.4737 15.7871 10.4737C15.4687 10.4737 15.2106 10.1725 15.2106 9.80106C15.2106 9.42958 15.4687 9.12843 15.7871 9.12843Z"  />
<path d="M4.60813 9.12843C4.92654 9.12843 5.18467 9.42958 5.18467 9.80106C5.18467 10.1725 4.92654 10.4737 4.60813 10.4737C4.28971 10.4737 4.03159 10.1725 4.03159 9.80106C4.03159 9.42958 4.28971 9.12843 4.60813 9.12843Z" />
</svg>
