<svg width="24" height="24" viewBox="0 0 24 24" fill="none" xmlns="http://www.w3.org/2000/svg">
<path d="M10.4697 8.46984C10.7626 8.17695 11.2374 8.17695 11.5303 8.46984L14 10.9395L16.4697 8.46985C16.7626 8.17696 17.2374 8.17696 17.5303 8.46985C17.8232 8.76275 17.8232 9.23762 17.5303 9.53051L15.0607 12.0002L17.5303 14.4698C17.8232 14.7627 17.8232 15.2376 17.5303 15.5305C17.2374 15.8234 16.7626 15.8234 16.4697 15.5305L14 13.0608L11.5303 15.5305C11.2374 15.8234 10.7626 15.8234 10.4697 15.5305C10.1768 15.2376 10.1768 14.7627 10.4697 14.4699L12.9393 12.0002L10.4697 9.5305C10.1768 9.23761 10.1768 8.76274 10.4697 8.46984Z" />
<path fill-rule="evenodd" clip-rule="evenodd" d="M8.40595 4.9502C7.25488 4.9502 6.16757 5.47884 5.45665 6.38413L1.89515 10.9194C1.39693 11.5538 1.39693 12.4466 1.89515 13.081L5.45665 17.6163C6.16758 18.5216 7.25488 19.0502 8.40595 19.0502H19.0526C20.5714 19.0502 21.8026 17.819 21.8026 16.3002V7.7002C21.8026 6.18141 20.5714 4.9502 19.0526 4.9502H8.40595ZM6.63637 7.31055C7.06292 6.76738 7.71531 6.4502 8.40595 6.4502H19.0526C19.743 6.4502 20.3026 7.00984 20.3026 7.7002V16.3002C20.3026 16.9906 19.743 17.5502 19.0526 17.5502H8.40595C7.71531 17.5502 7.06292 17.233 6.63637 16.6898L3.07486 12.1546C3.00369 12.064 3.00369 11.9364 3.07486 11.8458L6.63637 7.31055Z"/>
</svg>
