<svg width="123" height="24" viewBox="0 0 123 24" fill="none" xmlns="http://www.w3.org/2000/svg">
<path d="M9.42188 23.2109C8.26172 23.2109 7.16602 22.9941 6.13477 22.5605C5.10352 22.1152 4.19531 21.4941 3.41016 20.6973C2.625 19.9121 2.01562 18.998 1.58203 17.9551C1.14844 16.9121 0.931641 15.8105 0.931641 14.6504C0.931641 13.4785 1.14844 12.3711 1.58203 11.3281C2.01562 10.2734 2.625 9.34766 3.41016 8.55078C4.19531 7.75391 5.10352 7.13867 6.13477 6.70508C7.16602 6.25977 8.26172 6.03711 9.42188 6.03711C10.5938 6.03711 11.6953 6.25977 12.7266 6.70508C13.7578 7.13867 14.666 7.75391 15.4512 8.55078C16.2246 9.33594 16.8281 10.2559 17.2617 11.3105C17.6953 12.3652 17.9121 13.4785 17.9121 14.6504V21.875C17.9121 22.2148 17.7949 22.502 17.5605 22.7363C17.3262 22.9707 17.0391 23.0879 16.6992 23.0879C16.3594 23.0879 16.084 22.9766 15.873 22.7539C15.6621 22.5195 15.5566 22.2266 15.5566 21.875L15.5391 20.6094C14.7422 21.4414 13.8223 22.0859 12.7793 22.543C11.748 22.9883 10.6289 23.2109 9.42188 23.2109ZM9.42188 20.873C10.2891 20.873 11.0977 20.7148 11.8477 20.3984C12.6094 20.0703 13.2656 19.6133 13.8164 19.0273C14.3672 18.4531 14.7949 17.791 15.0996 17.041C15.4043 16.2793 15.5566 15.4824 15.5566 14.6504C15.5566 13.8066 15.4043 13.0039 15.0996 12.2422C14.7949 11.4688 14.3672 10.8008 13.8164 10.2383C13.2539 9.66406 12.5977 9.21875 11.8477 8.90234C11.0977 8.57422 10.2891 8.41016 9.42188 8.41016C8.56641 8.41016 7.76367 8.57422 7.01367 8.90234C6.27539 9.21875 5.625 9.66406 5.0625 10.2383C4.5 10.8125 4.06055 11.4805 3.74414 12.2422C3.43945 13.0039 3.28711 13.8066 3.28711 14.6504C3.28711 15.4824 3.43945 16.2793 3.74414 17.041C4.06055 17.791 4.5 18.4531 5.0625 19.0273C5.625 19.6133 6.27539 20.0703 7.01367 20.3984C7.76367 20.7148 8.56641 20.873 9.42188 20.873ZM21.8594 23C21.5312 23 21.2441 22.8887 20.998 22.666C20.7637 22.4434 20.6465 22.1621 20.6465 21.8223V15.002C20.6465 13.7949 20.875 12.6465 21.332 11.5566C21.8008 10.4668 22.4453 9.50586 23.2656 8.67383C24.0977 7.8418 25.0527 7.19727 26.1309 6.74023C27.209 6.27148 28.3457 6.03711 29.541 6.03711H29.6816C30.0566 6.03711 30.3496 6.14844 30.5605 6.37109C30.7832 6.58203 30.8945 6.86328 30.8945 7.21484C30.8945 7.55469 30.7773 7.83594 30.543 8.05859C30.3203 8.26953 30.0332 8.375 29.6816 8.375H29.541C28.6738 8.375 27.8418 8.54492 27.0449 8.88477C26.248 9.22461 25.5449 9.69922 24.9355 10.3086C24.3262 10.918 23.8457 11.6328 23.4941 12.4531C23.1543 13.2617 22.9844 14.1113 22.9844 15.002V21.8223C22.9844 22.1621 22.873 22.4434 22.6504 22.666C22.4395 22.8887 22.1758 23 21.8594 23ZM40.9766 23.2285C39.793 23.2285 38.6738 23.0176 37.6191 22.5957C36.5762 22.1621 35.6621 21.5645 34.877 20.8027C34.0801 20.0293 33.459 19.1328 33.0137 18.1133C32.5684 17.082 32.3457 15.9805 32.3457 14.8086V2.16992C32.3457 1.8418 32.4629 1.56055 32.6973 1.32617C32.9316 1.0918 33.207 0.974609 33.5234 0.974609C33.8516 0.974609 34.1328 1.0918 34.3672 1.32617C34.6133 1.54883 34.7363 1.83008 34.7363 2.16992V6.19531H42.4883C42.8164 6.19531 43.0977 6.3125 43.332 6.54688C43.5664 6.78125 43.6836 7.0625 43.6836 7.39062C43.6836 7.70703 43.5664 7.97656 43.332 8.19922C43.1094 8.41016 42.8281 8.51562 42.4883 8.51562H34.7363V14.8262C34.7363 15.6699 34.8945 16.4609 35.2109 17.1992C35.5273 17.9375 35.9727 18.582 36.5469 19.1328C37.1211 19.6836 37.7832 20.1172 38.5332 20.4336C39.2949 20.7383 40.1094 20.8906 40.9766 20.8906C41.7617 20.8906 42.4883 20.7734 43.1562 20.5391C43.8242 20.293 44.4512 19.9121 45.0371 19.3965C45.2012 19.2676 45.3477 19.1738 45.4766 19.1152C45.6055 19.0449 45.7637 19.0098 45.9512 19.0098C46.2324 19.0098 46.4727 19.1211 46.6719 19.3438C46.8828 19.5547 46.9883 19.8125 46.9883 20.1172C46.9883 20.293 46.9473 20.4688 46.8652 20.6445C46.7949 20.8203 46.6895 20.9727 46.5488 21.1016C45.8105 21.8047 44.9668 22.3379 44.0176 22.7012C43.0801 23.0527 42.0664 23.2285 40.9766 23.2285ZM49.7402 23C49.4121 23 49.1309 22.8887 48.8965 22.666C48.6738 22.4434 48.5625 22.1621 48.5625 21.8223V11.4863C48.5625 10.7363 48.7031 10.0273 48.9844 9.35938C49.2656 8.69141 49.6641 8.09961 50.1797 7.58398C50.6953 7.06836 51.2812 6.66992 51.9375 6.38867C52.6055 6.10742 53.3145 5.9668 54.0645 5.9668C54.9199 5.9668 55.7227 6.16016 56.4727 6.54688C57.2344 6.92188 57.8848 7.4375 58.4238 8.09375C58.9395 7.4375 59.5723 6.92188 60.3223 6.54688C61.084 6.16016 61.8926 5.9668 62.748 5.9668C63.4863 5.9668 64.1953 6.10742 64.875 6.38867C65.5664 6.66992 66.1699 7.0625 66.6855 7.56641C67.2129 8.08203 67.623 8.67383 67.916 9.3418C68.209 10.0098 68.3555 10.7188 68.3555 11.4688V21.8223C68.3555 22.1621 68.2383 22.4434 68.0039 22.666C67.7695 22.8887 67.4941 23 67.1777 23C66.8496 23 66.5684 22.8887 66.334 22.666C66.1113 22.4434 66 22.1621 66 21.8223V11.6621C66 11.2402 65.918 10.8301 65.7539 10.4316C65.5898 10.0215 65.3613 9.66406 65.0684 9.35938C64.7754 9.05469 64.4297 8.82031 64.0312 8.65625C63.6328 8.48047 63.2109 8.39258 62.7656 8.39258C62.3555 8.39258 61.9629 8.46875 61.5879 8.62109C61.2246 8.77344 60.8965 8.99023 60.6035 9.27148C59.9941 9.88086 59.666 10.5898 59.6191 11.3984C59.6191 11.4336 59.625 11.4629 59.6367 11.4863V11.5742V21.8047C59.6367 22.1328 59.5195 22.4141 59.2852 22.6484C59.0508 22.8711 58.7754 22.9824 58.459 22.9824C58.1309 22.9824 57.8555 22.8711 57.6328 22.6484C57.4102 22.4141 57.2988 22.1328 57.2988 21.8047V11.6797C57.2988 11.2461 57.2168 10.8301 57.0527 10.4316C56.9004 10.0332 56.6777 9.67578 56.3848 9.35938C56.0918 9.04297 55.752 8.80273 55.3652 8.63867C54.9785 8.46289 54.5625 8.375 54.1172 8.375C53.707 8.375 53.3145 8.45117 52.9395 8.60352C52.5762 8.75586 52.248 8.9668 51.9551 9.23633C51.6738 9.50586 51.4395 9.82227 51.252 10.1855C51.0762 10.5488 50.9707 10.9238 50.9355 11.3105C50.9355 11.3457 50.9414 11.375 50.9531 11.3984V11.5039L50.918 21.8223C50.9062 22.1621 50.7832 22.4434 50.5488 22.666C50.3262 22.8887 50.0566 23 49.7402 23ZM78.6484 23.2109C77.4883 23.2109 76.3926 22.9941 75.3613 22.5605C74.3301 22.1152 73.4219 21.4941 72.6367 20.6973C71.8516 19.9121 71.2422 18.998 70.8086 17.9551C70.375 16.9121 70.1582 15.8105 70.1582 14.6504C70.1582 13.4785 70.375 12.3711 70.8086 11.3281C71.2422 10.2734 71.8516 9.34766 72.6367 8.55078C73.4219 7.75391 74.3301 7.13867 75.3613 6.70508C76.3926 6.25977 77.4883 6.03711 78.6484 6.03711C79.8203 6.03711 80.9219 6.25977 81.9531 6.70508C82.9844 7.13867 83.8926 7.75391 84.6777 8.55078C85.4512 9.33594 86.0547 10.2559 86.4883 11.3105C86.9219 12.3652 87.1387 13.4785 87.1387 14.6504V21.875C87.1387 22.2148 87.0215 22.502 86.7871 22.7363C86.5527 22.9707 86.2656 23.0879 85.9258 23.0879C85.5859 23.0879 85.3105 22.9766 85.0996 22.7539C84.8887 22.5195 84.7832 22.2266 84.7832 21.875L84.7656 20.6094C83.9688 21.4414 83.0488 22.0859 82.0059 22.543C80.9746 22.9883 79.8555 23.2109 78.6484 23.2109ZM78.6484 20.873C79.5156 20.873 80.3242 20.7148 81.0742 20.3984C81.8359 20.0703 82.4922 19.6133 83.043 19.0273C83.5938 18.4531 84.0215 17.791 84.3262 17.041C84.6309 16.2793 84.7832 15.4824 84.7832 14.6504C84.7832 13.8066 84.6309 13.0039 84.3262 12.2422C84.0215 11.4688 83.5938 10.8008 83.043 10.2383C82.4805 9.66406 81.8242 9.21875 81.0742 8.90234C80.3242 8.57422 79.5156 8.41016 78.6484 8.41016C77.793 8.41016 76.9902 8.57422 76.2402 8.90234C75.502 9.21875 74.8516 9.66406 74.2891 10.2383C73.7266 10.8125 73.2871 11.4805 72.9707 12.2422C72.666 13.0039 72.5137 13.8066 72.5137 14.6504C72.5137 15.4824 72.666 16.2793 72.9707 17.041C73.2871 17.791 73.7266 18.4531 74.2891 19.0273C74.8516 19.6133 75.502 20.0703 76.2402 20.3984C76.9902 20.7148 77.793 20.873 78.6484 20.873ZM98.5039 23.2285C97.3203 23.2285 96.2012 23.0176 95.1465 22.5957C94.1035 22.1621 93.1895 21.5645 92.4043 20.8027C91.6074 20.0293 90.9863 19.1328 90.541 18.1133C90.0957 17.082 89.873 15.9805 89.873 14.8086V2.16992C89.873 1.8418 89.9902 1.56055 90.2246 1.32617C90.459 1.0918 90.7344 0.974609 91.0508 0.974609C91.3789 0.974609 91.6602 1.0918 91.8945 1.32617C92.1406 1.54883 92.2637 1.83008 92.2637 2.16992V6.19531H100.016C100.344 6.19531 100.625 6.3125 100.859 6.54688C101.094 6.78125 101.211 7.0625 101.211 7.39062C101.211 7.70703 101.094 7.97656 100.859 8.19922C100.637 8.41016 100.355 8.51562 100.016 8.51562H92.2637V14.8262C92.2637 15.6699 92.4219 16.4609 92.7383 17.1992C93.0547 17.9375 93.5 18.582 94.0742 19.1328C94.6484 19.6836 95.3105 20.1172 96.0605 20.4336C96.8223 20.7383 97.6367 20.8906 98.5039 20.8906C99.2891 20.8906 100.016 20.7734 100.684 20.5391C101.352 20.293 101.979 19.9121 102.564 19.3965C102.729 19.2676 102.875 19.1738 103.004 19.1152C103.133 19.0449 103.291 19.0098 103.479 19.0098C103.76 19.0098 104 19.1211 104.199 19.3438C104.41 19.5547 104.516 19.8125 104.516 20.1172C104.516 20.293 104.475 20.4688 104.393 20.6445C104.322 20.8203 104.217 20.9727 104.076 21.1016C103.338 21.8047 102.494 22.3379 101.545 22.7012C100.607 23.0527 99.5938 23.2285 98.5039 23.2285ZM113.561 23.2109C112.4 23.2109 111.293 22.9883 110.238 22.543C109.195 22.0977 108.281 21.4824 107.496 20.6973C106.699 19.9121 106.078 18.998 105.633 17.9551C105.188 16.9004 104.965 15.793 104.965 14.6328C104.965 13.4727 105.188 12.3711 105.633 11.3281C106.078 10.2734 106.699 9.34766 107.496 8.55078C108.281 7.76562 109.195 7.15039 110.238 6.70508C111.293 6.25977 112.4 6.03711 113.561 6.03711C114.709 6.03711 115.805 6.25977 116.848 6.70508C117.902 7.15039 118.828 7.76562 119.625 8.55078C120.41 9.33594 121.025 10.25 121.471 11.293C121.928 12.3359 122.162 13.4316 122.174 14.5801C122.174 14.8965 122.068 15.166 121.857 15.3887C121.646 15.5996 121.371 15.7051 121.031 15.7051H107.566C107.66 16.4316 107.877 17.1172 108.217 17.7617C108.568 18.3945 109.014 18.9512 109.553 19.4316C110.104 19.9121 110.719 20.2871 111.398 20.5566C112.09 20.8262 112.811 20.9609 113.561 20.9609C114.264 20.9609 114.838 20.8965 115.283 20.7676C115.682 20.6621 116.15 20.457 116.689 20.1523C116.924 20.0117 117.164 19.9414 117.41 19.9414C117.727 19.9414 117.996 20.0703 118.219 20.3281C118.441 20.5742 118.553 20.8555 118.553 21.1719C118.553 21.5938 118.365 21.9102 117.99 22.1211C117.311 22.5078 116.672 22.7773 116.074 22.9297C115.324 23.1172 114.486 23.2109 113.561 23.2109ZM119.783 13.7363C119.689 12.9629 119.467 12.248 119.115 11.5918C118.775 10.9238 118.324 10.3438 117.762 9.85156C117.199 9.35938 116.561 8.97852 115.846 8.70898C115.131 8.42773 114.381 8.28711 113.596 8.28711C112.799 8.28711 112.043 8.42773 111.328 8.70898C110.625 8.99023 109.998 9.38281 109.447 9.88672C108.908 10.3789 108.469 10.959 108.129 11.627C107.789 12.2949 107.578 12.998 107.496 13.7363H119.783Z"/>
</svg>