<svg width="220" height="26" viewBox="0 0 220 26" fill="none" xmlns="http://www.w3.org/2000/svg">
<path d="M8.69531 21.1992C7.59961 21.1992 6.56478 20.9945 5.59082 20.585C4.61686 20.1644 3.75911 19.5778 3.01758 18.8252C2.27604 18.0837 1.70052 17.2204 1.29102 16.2354C0.88151 15.2503 0.676758 14.21 0.676758 13.1143C0.676758 12.0075 0.88151 10.9616 1.29102 9.97656C1.70052 8.98047 2.27604 8.10612 3.01758 7.35352C3.75911 6.60091 4.61686 6.01986 5.59082 5.61035C6.56478 5.18978 7.59961 4.97949 8.69531 4.97949C9.80208 4.97949 10.8424 5.18978 11.8164 5.61035C12.7904 6.01986 13.6481 6.60091 14.3896 7.35352C15.1201 8.09505 15.6901 8.96387 16.0996 9.95996C16.5091 10.9561 16.7139 12.0075 16.7139 13.1143V19.9375C16.7139 20.2585 16.6032 20.5296 16.3818 20.751C16.1605 20.9723 15.8893 21.083 15.5684 21.083C15.2474 21.083 14.9873 20.9779 14.7881 20.7676C14.5889 20.5462 14.4893 20.2695 14.4893 19.9375L14.4727 18.7422C13.7201 19.528 12.8512 20.1367 11.8662 20.5684C10.8923 20.9889 9.83529 21.1992 8.69531 21.1992ZM8.69531 18.9912C9.51432 18.9912 10.278 18.8418 10.9863 18.543C11.7057 18.2331 12.3255 17.8014 12.8457 17.248C13.3659 16.7057 13.7699 16.0804 14.0576 15.3721C14.3454 14.6527 14.4893 13.9001 14.4893 13.1143C14.4893 12.3174 14.3454 11.5592 14.0576 10.8398C13.7699 10.1094 13.3659 9.47852 12.8457 8.94727C12.3145 8.40495 11.6947 7.98438 10.9863 7.68555C10.278 7.37565 9.51432 7.2207 8.69531 7.2207C7.88737 7.2207 7.12923 7.37565 6.4209 7.68555C5.72363 7.98438 5.10938 8.40495 4.57812 8.94727C4.04688 9.48958 3.63184 10.1204 3.33301 10.8398C3.04525 11.5592 2.90137 12.3174 2.90137 13.1143C2.90137 13.9001 3.04525 14.6527 3.33301 15.3721C3.63184 16.0804 4.04688 16.7057 4.57812 17.248C5.10938 17.8014 5.72363 18.2331 6.4209 18.543C7.12923 18.8418 7.88737 18.9912 8.69531 18.9912ZM20.4141 21C20.1042 21 19.833 20.8949 19.6006 20.6846C19.3792 20.4743 19.2686 20.2087 19.2686 19.8877V13.4463C19.2686 12.3063 19.4844 11.2217 19.916 10.1924C20.3587 9.16309 20.9674 8.25553 21.7422 7.46973C22.528 6.68392 23.43 6.0752 24.4482 5.64355C25.4665 5.20085 26.54 4.97949 27.6689 4.97949H27.8018C28.1559 4.97949 28.4326 5.08464 28.6318 5.29492C28.8421 5.49414 28.9473 5.75977 28.9473 6.0918C28.9473 6.41276 28.8366 6.67839 28.6152 6.88867C28.4049 7.08789 28.1338 7.1875 27.8018 7.1875H27.6689C26.8499 7.1875 26.0641 7.34798 25.3115 7.66895C24.5589 7.98991 23.8949 8.43815 23.3193 9.01367C22.7438 9.58919 22.29 10.2643 21.958 11.0391C21.637 11.8027 21.4766 12.6051 21.4766 13.4463V19.8877C21.4766 20.2087 21.3714 20.4743 21.1611 20.6846C20.9619 20.8949 20.7129 21 20.4141 21ZM38.4414 21.2158C37.3236 21.2158 36.2666 21.0166 35.2705 20.6182C34.2855 20.2087 33.4222 19.6442 32.6807 18.9248C31.9281 18.1943 31.3415 17.3477 30.9209 16.3848C30.5003 15.4108 30.29 14.3704 30.29 13.2637V1.32715C30.29 1.01725 30.4007 0.751628 30.6221 0.530273C30.8434 0.308919 31.1035 0.198242 31.4023 0.198242C31.7122 0.198242 31.9779 0.308919 32.1992 0.530273C32.4316 0.74056 32.5479 1.00618 32.5479 1.32715V5.12891H39.8691C40.179 5.12891 40.4447 5.23958 40.666 5.46094C40.8874 5.68229 40.998 5.94792 40.998 6.25781C40.998 6.55664 40.8874 6.8112 40.666 7.02148C40.4557 7.2207 40.1901 7.32031 39.8691 7.32031H32.5479V13.2803C32.5479 14.0771 32.6973 14.8242 32.9961 15.5215C33.2949 16.2188 33.7155 16.8275 34.2578 17.3477C34.8001 17.8678 35.4255 18.2773 36.1338 18.5762C36.8532 18.8639 37.6224 19.0078 38.4414 19.0078C39.1829 19.0078 39.8691 18.8971 40.5 18.6758C41.1309 18.4434 41.723 18.0837 42.2764 17.5967C42.4313 17.4749 42.5697 17.3864 42.6914 17.3311C42.8132 17.2646 42.9626 17.2314 43.1396 17.2314C43.4053 17.2314 43.6322 17.3366 43.8203 17.5469C44.0195 17.7461 44.1191 17.9896 44.1191 18.2773C44.1191 18.4434 44.0804 18.6094 44.0029 18.7754C43.9365 18.9414 43.8369 19.0853 43.7041 19.207C43.0068 19.8711 42.21 20.3747 41.3135 20.7178C40.4281 21.0498 39.4707 21.2158 38.4414 21.2158ZM53.9766 2.72168C53.6003 2.72168 53.2848 2.5944 53.0303 2.33984C52.7757 2.07422 52.6484 1.75879 52.6484 1.39355C52.6484 1.01725 52.7757 0.701823 53.0303 0.447266C53.2848 0.192708 53.6003 0.0654297 53.9766 0.0654297C54.3529 0.0654297 54.6683 0.192708 54.9229 0.447266C55.1885 0.701823 55.3213 1.01725 55.3213 1.39355C55.3213 1.75879 55.1885 2.07422 54.9229 2.33984C54.6683 2.5944 54.3529 2.72168 53.9766 2.72168ZM53.9766 21.083C53.6667 21.083 53.401 20.9779 53.1797 20.7676C52.9583 20.5462 52.8477 20.2806 52.8477 19.9707V6.1084C52.8477 5.78743 52.9583 5.52181 53.1797 5.31152C53.401 5.09017 53.6667 4.97949 53.9766 4.97949C54.2975 4.97949 54.5576 5.09017 54.7568 5.31152C54.9671 5.52181 55.0723 5.78743 55.0723 6.1084V19.9707C55.0723 20.2806 54.9616 20.5462 54.7402 20.7676C54.5299 20.9779 54.2754 21.083 53.9766 21.083ZM58.2578 21C57.959 21 57.71 20.8949 57.5107 20.6846C57.3226 20.4743 57.2285 20.2031 57.2285 19.8711C57.2285 19.5501 57.3226 19.29 57.5107 19.0908C57.71 18.8916 57.959 18.792 58.2578 18.792H65.2803C65.5902 18.792 65.9001 18.7367 66.21 18.626C66.5199 18.5042 66.791 18.3327 67.0234 18.1113C67.5658 17.6022 67.8369 16.9935 67.8369 16.2852C67.8369 15.5768 67.5768 15.0013 67.0566 14.5586C66.8242 14.3594 66.5475 14.21 66.2266 14.1104C65.9167 13.9997 65.5957 13.9388 65.2637 13.9277H61.9932C61.3734 13.9277 60.7868 13.806 60.2334 13.5625C59.6911 13.319 59.2152 12.987 58.8057 12.5664C58.3962 12.1458 58.0807 11.6644 57.8594 11.1221C57.638 10.5687 57.5273 9.98763 57.5273 9.37891C57.5273 8.78125 57.6436 8.2168 57.876 7.68555C58.1084 7.1543 58.4294 6.68392 58.8389 6.27441C59.2484 5.86491 59.7243 5.54948 60.2666 5.32812C60.8089 5.0957 61.3844 4.97949 61.9932 4.97949H68.0527C68.3737 4.97949 68.6393 5.0791 68.8496 5.27832C69.0599 5.46647 69.165 5.72656 69.165 6.05859C69.165 6.40169 69.0599 6.67839 68.8496 6.88867C68.6393 7.09896 68.3737 7.2041 68.0527 7.2041H61.9766C61.3678 7.2041 60.8366 7.43099 60.3828 7.88477C60.1836 8.09505 60.0231 8.33854 59.9014 8.61523C59.7907 8.88086 59.7354 9.15755 59.7354 9.44531C59.7354 9.74414 59.7907 10.0319 59.9014 10.3086C60.0231 10.5853 60.1891 10.8232 60.3994 11.0225C60.5986 11.2327 60.8366 11.3988 61.1133 11.5205C61.39 11.6423 61.6777 11.7031 61.9766 11.7031H65.4463C66.0882 11.7031 66.6914 11.8249 67.2559 12.0684C67.8203 12.3008 68.3128 12.6328 68.7334 13.0645C69.154 13.4961 69.4749 13.9941 69.6963 14.5586C69.9287 15.123 70.0449 15.7152 70.0449 16.335C70.0449 16.9548 69.9287 17.5469 69.6963 18.1113C69.4749 18.6758 69.1595 19.1738 68.75 19.6055C68.3294 20.0482 67.8369 20.3913 67.2725 20.6348C66.7191 20.8783 66.1214 21 65.4795 21H58.2578ZM93.7812 25.9473C93.4714 25.9473 93.2113 25.8421 93.001 25.6318C92.7907 25.4215 92.6855 25.1559 92.6855 24.835V18.0947C91.9551 18.9691 91.1029 19.6608 90.1289 20.1699C89.1549 20.668 88.1035 20.917 86.9746 20.917C85.901 20.917 84.8773 20.7122 83.9033 20.3027C82.9294 19.8932 82.0771 19.3232 81.3467 18.5928C80.6051 17.8512 80.0296 16.999 79.6201 16.0361C79.2106 15.0732 79.0059 14.0495 79.0059 12.9648V6.0918C79.0059 5.77083 79.1165 5.49967 79.3379 5.27832C79.5592 5.05697 79.8304 4.94629 80.1514 4.94629C80.4502 4.94629 80.7103 5.05697 80.9316 5.27832C81.153 5.49967 81.2637 5.77083 81.2637 6.0918V13.0479C81.2637 13.8005 81.4131 14.5254 81.7119 15.2227C82.0107 15.9089 82.4258 16.5065 82.957 17.0156C83.4883 17.5358 84.1025 17.9453 84.7998 18.2441C85.4971 18.5319 86.222 18.6758 86.9746 18.6758C87.7161 18.6758 88.4355 18.5319 89.1328 18.2441C89.8301 17.9453 90.4499 17.5358 90.9922 17.0156C91.5234 16.5065 91.9385 15.9089 92.2373 15.2227C92.5361 14.5254 92.6855 13.8005 92.6855 13.0479V6.0918C92.6855 5.77083 92.7962 5.49967 93.0176 5.27832C93.2389 5.05697 93.499 4.94629 93.7979 4.94629C94.1077 4.94629 94.3734 5.05697 94.5947 5.27832C94.8161 5.49967 94.9268 5.77083 94.9268 6.0918V24.835C94.9268 25.1559 94.8161 25.4215 94.5947 25.6318C94.3734 25.8421 94.1022 25.9473 93.7812 25.9473ZM104.404 21.1992C103.309 21.1992 102.268 20.9945 101.283 20.585C100.309 20.1644 99.446 19.5778 98.6934 18.8252C97.9408 18.0837 97.3542 17.2204 96.9336 16.2354C96.513 15.2503 96.3027 14.21 96.3027 13.1143C96.3027 12.0075 96.513 10.9561 96.9336 9.95996C97.3542 8.96387 97.9408 8.09505 98.6934 7.35352C99.446 6.60091 100.309 6.01986 101.283 5.61035C102.268 5.18978 103.309 4.97949 104.404 4.97949C105.511 4.97949 106.557 5.18978 107.542 5.61035C108.538 6.03092 109.407 6.61198 110.148 7.35352C110.89 8.10612 111.465 8.98047 111.875 9.97656C112.296 10.9616 112.506 12.0075 112.506 13.1143C112.506 14.21 112.296 15.2503 111.875 16.2354C111.465 17.2204 110.89 18.0837 110.148 18.8252C109.407 19.5667 108.538 20.1478 107.542 20.5684C106.557 20.9889 105.511 21.1992 104.404 21.1992ZM104.404 18.9912C105.223 18.9912 105.993 18.8418 106.712 18.543C107.431 18.2331 108.062 17.8014 108.604 17.248C109.136 16.7057 109.551 16.0804 109.85 15.3721C110.148 14.6527 110.298 13.9001 110.298 13.1143C110.298 12.3174 110.148 11.5592 109.85 10.8398C109.551 10.1204 109.136 9.48958 108.604 8.94727C108.062 8.40495 107.426 7.98438 106.695 7.68555C105.976 7.37565 105.212 7.2207 104.404 7.2207C103.596 7.2207 102.833 7.37565 102.113 7.68555C101.405 7.98438 100.78 8.40495 100.237 8.94727C99.695 9.48958 99.2689 10.1204 98.959 10.8398C98.6602 11.5592 98.5107 12.3174 98.5107 13.1143C98.5107 13.9001 98.6602 14.6527 98.959 15.3721C99.2689 16.0804 99.695 16.7057 100.237 17.248C100.78 17.8014 101.405 18.2331 102.113 18.543C102.833 18.8418 103.596 18.9912 104.404 18.9912ZM121.851 21.1992C120.788 21.1992 119.792 21 118.862 20.6016C117.944 20.1921 117.136 19.6276 116.438 18.9082C115.741 18.1999 115.199 17.3753 114.812 16.4346C114.435 15.4827 114.247 14.4811 114.247 13.4297V6.05859C114.247 5.73763 114.352 5.47201 114.562 5.26172C114.784 5.05143 115.044 4.94629 115.343 4.94629C115.653 4.94629 115.913 5.05143 116.123 5.26172C116.344 5.47201 116.455 5.73763 116.455 6.05859V13.4297C116.455 14.1823 116.593 14.8962 116.87 15.5713C117.147 16.2464 117.529 16.8385 118.016 17.3477C118.503 17.8678 119.073 18.2718 119.726 18.5596C120.39 18.8473 121.098 18.9912 121.851 18.9912C122.603 18.9912 123.295 18.8473 123.926 18.5596C124.568 18.2718 125.116 17.8678 125.569 17.3477C126.023 16.8385 126.372 16.2464 126.615 15.5713C126.859 14.8962 126.98 14.1768 126.98 13.4131V6.05859C126.98 5.73763 127.091 5.47201 127.312 5.26172C127.534 5.04036 127.799 4.92969 128.109 4.92969C128.419 4.92969 128.679 5.04036 128.89 5.26172C129.1 5.47201 129.205 5.73763 129.205 6.05859V13.4629C129.205 14.5143 129.022 15.5104 128.657 16.4512C128.303 17.3919 127.794 18.2165 127.13 18.9248C126.455 19.6442 125.663 20.2031 124.756 20.6016C123.859 21 122.891 21.1992 121.851 21.1992ZM132.822 21C132.512 21 132.241 20.8949 132.009 20.6846C131.787 20.4743 131.677 20.2087 131.677 19.8877V13.4463C131.677 12.3063 131.893 11.2217 132.324 10.1924C132.767 9.16309 133.376 8.25553 134.15 7.46973C134.936 6.68392 135.838 6.0752 136.856 5.64355C137.875 5.20085 138.948 4.97949 140.077 4.97949H140.21C140.564 4.97949 140.841 5.08464 141.04 5.29492C141.25 5.49414 141.355 5.75977 141.355 6.0918C141.355 6.41276 141.245 6.67839 141.023 6.88867C140.813 7.08789 140.542 7.1875 140.21 7.1875H140.077C139.258 7.1875 138.472 7.34798 137.72 7.66895C136.967 7.98991 136.303 8.43815 135.728 9.01367C135.152 9.58919 134.698 10.2643 134.366 11.0391C134.045 11.8027 133.885 12.6051 133.885 13.4463V19.8877C133.885 20.2087 133.78 20.4743 133.569 20.6846C133.37 20.8949 133.121 21 132.822 21ZM151.097 21C150.787 21 150.521 20.8949 150.3 20.6846C150.09 20.4743 149.984 20.2087 149.984 19.8877V10.126C149.984 9.41764 150.117 8.74805 150.383 8.11719C150.648 7.48633 151.025 6.92741 151.512 6.44043C151.999 5.95345 152.552 5.57715 153.172 5.31152C153.803 5.0459 154.472 4.91309 155.181 4.91309C155.989 4.91309 156.747 5.0957 157.455 5.46094C158.174 5.8151 158.789 6.30208 159.298 6.92188C159.785 6.30208 160.382 5.8151 161.091 5.46094C161.81 5.0957 162.574 4.91309 163.382 4.91309C164.079 4.91309 164.749 5.0459 165.391 5.31152C166.044 5.57715 166.614 5.94792 167.101 6.42383C167.599 6.91081 167.986 7.46973 168.263 8.10059C168.539 8.73145 168.678 9.40104 168.678 10.1094V19.8877C168.678 20.2087 168.567 20.4743 168.346 20.6846C168.124 20.8949 167.864 21 167.565 21C167.256 21 166.99 20.8949 166.769 20.6846C166.558 20.4743 166.453 20.2087 166.453 19.8877V10.292C166.453 9.89355 166.376 9.50618 166.221 9.12988C166.066 8.74251 165.85 8.40495 165.573 8.11719C165.297 7.82943 164.97 7.60807 164.594 7.45312C164.217 7.28711 163.819 7.2041 163.398 7.2041C163.011 7.2041 162.64 7.27604 162.286 7.41992C161.943 7.5638 161.633 7.76855 161.356 8.03418C160.781 8.6097 160.471 9.2793 160.427 10.043C160.427 10.0762 160.432 10.1038 160.443 10.126V10.209V19.8711C160.443 20.181 160.333 20.4466 160.111 20.668C159.89 20.8783 159.63 20.9834 159.331 20.9834C159.021 20.9834 158.761 20.8783 158.551 20.668C158.34 20.4466 158.235 20.181 158.235 19.8711V10.3086C158.235 9.89909 158.158 9.50618 158.003 9.12988C157.859 8.75358 157.649 8.41602 157.372 8.11719C157.095 7.81836 156.774 7.59147 156.409 7.43652C156.044 7.27051 155.651 7.1875 155.23 7.1875C154.843 7.1875 154.472 7.25944 154.118 7.40332C153.775 7.5472 153.465 7.74642 153.188 8.00098C152.923 8.25553 152.701 8.55436 152.524 8.89746C152.358 9.24056 152.259 9.59473 152.226 9.95996C152.226 9.99316 152.231 10.0208 152.242 10.043V10.1426L152.209 19.8877C152.198 20.2087 152.082 20.4743 151.86 20.6846C151.65 20.8949 151.396 21 151.097 21ZM178.371 21.1992C177.275 21.1992 176.241 20.9945 175.267 20.585C174.293 20.1644 173.435 19.5778 172.693 18.8252C171.952 18.0837 171.376 17.2204 170.967 16.2354C170.557 15.2503 170.353 14.21 170.353 13.1143C170.353 12.0075 170.557 10.9616 170.967 9.97656C171.376 8.98047 171.952 8.10612 172.693 7.35352C173.435 6.60091 174.293 6.01986 175.267 5.61035C176.241 5.18978 177.275 4.97949 178.371 4.97949C179.478 4.97949 180.518 5.18978 181.492 5.61035C182.466 6.01986 183.324 6.60091 184.065 7.35352C184.796 8.09505 185.366 8.96387 185.775 9.95996C186.185 10.9561 186.39 12.0075 186.39 13.1143V19.9375C186.39 20.2585 186.279 20.5296 186.058 20.751C185.836 20.9723 185.565 21.083 185.244 21.083C184.923 21.083 184.663 20.9779 184.464 20.7676C184.265 20.5462 184.165 20.2695 184.165 19.9375L184.148 18.7422C183.396 19.528 182.527 20.1367 181.542 20.5684C180.568 20.9889 179.511 21.1992 178.371 21.1992ZM178.371 18.9912C179.19 18.9912 179.954 18.8418 180.662 18.543C181.382 18.2331 182.001 17.8014 182.521 17.248C183.042 16.7057 183.446 16.0804 183.733 15.3721C184.021 14.6527 184.165 13.9001 184.165 13.1143C184.165 12.3174 184.021 11.5592 183.733 10.8398C183.446 10.1094 183.042 9.47852 182.521 8.94727C181.99 8.40495 181.37 7.98438 180.662 7.68555C179.954 7.37565 179.19 7.2207 178.371 7.2207C177.563 7.2207 176.805 7.37565 176.097 7.68555C175.399 7.98438 174.785 8.40495 174.254 8.94727C173.723 9.48958 173.308 10.1204 173.009 10.8398C172.721 11.5592 172.577 12.3174 172.577 13.1143C172.577 13.9001 172.721 14.6527 173.009 15.3721C173.308 16.0804 173.723 16.7057 174.254 17.248C174.785 17.8014 175.399 18.2331 176.097 18.543C176.805 18.8418 177.563 18.9912 178.371 18.9912ZM197.096 21.2158C195.978 21.2158 194.921 21.0166 193.925 20.6182C192.94 20.2087 192.076 19.6442 191.335 18.9248C190.582 18.1943 189.996 17.3477 189.575 16.3848C189.155 15.4108 188.944 14.3704 188.944 13.2637V1.32715C188.944 1.01725 189.055 0.751628 189.276 0.530273C189.498 0.308919 189.758 0.198242 190.057 0.198242C190.367 0.198242 190.632 0.308919 190.854 0.530273C191.086 0.74056 191.202 1.00618 191.202 1.32715V5.12891H198.523C198.833 5.12891 199.099 5.23958 199.32 5.46094C199.542 5.68229 199.652 5.94792 199.652 6.25781C199.652 6.55664 199.542 6.8112 199.32 7.02148C199.11 7.2207 198.844 7.32031 198.523 7.32031H191.202V13.2803C191.202 14.0771 191.352 14.8242 191.65 15.5215C191.949 16.2188 192.37 16.8275 192.912 17.3477C193.454 17.8678 194.08 18.2773 194.788 18.5762C195.507 18.8639 196.277 19.0078 197.096 19.0078C197.837 19.0078 198.523 18.8971 199.154 18.6758C199.785 18.4434 200.377 18.0837 200.931 17.5967C201.086 17.4749 201.224 17.3864 201.346 17.3311C201.467 17.2646 201.617 17.2314 201.794 17.2314C202.06 17.2314 202.286 17.3366 202.475 17.5469C202.674 17.7461 202.773 17.9896 202.773 18.2773C202.773 18.4434 202.735 18.6094 202.657 18.7754C202.591 18.9414 202.491 19.0853 202.358 19.207C201.661 19.8711 200.864 20.3747 199.968 20.7178C199.082 21.0498 198.125 21.2158 197.096 21.2158ZM211.288 21.1992C210.192 21.1992 209.146 20.9889 208.15 20.5684C207.165 20.1478 206.302 19.5667 205.561 18.8252C204.808 18.0837 204.221 17.2204 203.801 16.2354C203.38 15.2393 203.17 14.1934 203.17 13.0977C203.17 12.002 203.38 10.9616 203.801 9.97656C204.221 8.98047 204.808 8.10612 205.561 7.35352C206.302 6.61198 207.165 6.03092 208.15 5.61035C209.146 5.18978 210.192 4.97949 211.288 4.97949C212.373 4.97949 213.408 5.18978 214.393 5.61035C215.389 6.03092 216.263 6.61198 217.016 7.35352C217.757 8.09505 218.338 8.95833 218.759 9.94336C219.19 10.9284 219.412 11.9632 219.423 13.0479C219.423 13.3467 219.323 13.6012 219.124 13.8115C218.925 14.0107 218.665 14.1104 218.344 14.1104H205.627C205.715 14.7965 205.92 15.444 206.241 16.0527C206.573 16.6504 206.994 17.1761 207.503 17.6299C208.023 18.0837 208.604 18.4378 209.246 18.6924C209.899 18.9469 210.58 19.0742 211.288 19.0742C211.952 19.0742 212.494 19.0133 212.915 18.8916C213.291 18.792 213.734 18.5983 214.243 18.3105C214.465 18.1777 214.691 18.1113 214.924 18.1113C215.223 18.1113 215.477 18.2331 215.688 18.4766C215.898 18.709 216.003 18.9746 216.003 19.2734C216.003 19.6719 215.826 19.9707 215.472 20.1699C214.83 20.5352 214.227 20.7897 213.662 20.9336C212.954 21.1107 212.162 21.1992 211.288 21.1992ZM217.165 12.251C217.076 11.5205 216.866 10.8454 216.534 10.2256C216.213 9.59473 215.787 9.04688 215.256 8.58203C214.725 8.11719 214.121 7.75749 213.446 7.50293C212.771 7.2373 212.063 7.10449 211.321 7.10449C210.569 7.10449 209.855 7.2373 209.18 7.50293C208.516 7.76855 207.924 8.13932 207.403 8.61523C206.894 9.08008 206.479 9.62793 206.158 10.2588C205.837 10.8896 205.638 11.5537 205.561 12.251H217.165Z" fill-opacity="1"/>
</svg>
