<svg width="40" height="40" viewBox="0 0 40 40" fill="none" xmlns="http://www.w3.org/2000/svg">
<path d="M22.5 16.2498C22.5 15.5595 21.9404 14.9998 21.25 14.9998H11.25C10.5596 14.9998 10 15.5595 10 16.2498C10 16.9402 10.5596 17.4998 11.25 17.4998H21.25C21.9404 17.4998 22.5 16.9402 22.5 16.2498Z" fill="white"/>
<path d="M20.8333 21.2498C20.8333 20.5595 20.2737 19.9998 19.5833 19.9998H11.25C10.5596 19.9998 10 20.5595 10 21.2498C10 21.9402 10.5596 22.4998 11.25 22.4998H19.5833C20.2737 22.4998 20.8333 21.9402 20.8333 21.2498Z" fill="white"/>
<path d="M21.25 24.9998C21.9404 24.9998 22.5 25.5595 22.5 26.2498C22.5 26.9402 21.9404 27.4998 21.25 27.4998H11.25C10.5596 27.4998 10 26.9402 10 26.2498C10 25.5595 10.5596 24.9998 11.25 24.9998H21.25Z" fill="white"/>
<path fill-rule="evenodd" clip-rule="evenodd" d="M10 36.2499H31.6667C34.198 36.2499 36.25 34.1978 36.25 31.6665V22.4999C36.25 21.8095 35.6904 21.2499 35 21.2499H29.5833V8.2385C29.5833 5.86617 26.9018 4.48622 24.9714 5.86511L24.6796 6.0735C23.3788 7.00266 21.6168 6.99954 20.3099 6.06602C18.1368 4.5138 15.1966 4.5138 13.0235 6.06602C11.7165 6.99954 9.95451 7.00266 8.65369 6.0735L8.36194 5.86511C6.43149 4.48622 3.75 5.86617 3.75 8.2385V29.9999C3.75 33.4516 6.54822 36.2499 10 36.2499ZM14.4765 8.10035C15.7804 7.16902 17.5529 7.16902 18.8568 8.10035C21.0268 9.65039 23.9566 9.66224 26.1327 8.10784L26.4245 7.89945C26.7003 7.70246 27.0833 7.8996 27.0833 8.2385V31.6665C27.0833 32.4167 27.2636 33.1248 27.5831 33.7499H10C7.92893 33.7499 6.25 32.0709 6.25 29.9999V8.2385C6.25 7.8996 6.63307 7.70246 6.90885 7.89945L7.20059 8.10784C9.37675 9.66224 12.3065 9.65039 14.4765 8.10035ZM29.5833 31.6665V23.7499H33.75V31.6665C33.75 32.8171 32.8173 33.7499 31.6667 33.7499C30.5161 33.7499 29.5833 32.8171 29.5833 31.6665Z"/>
</svg>
