<svg width="390" height="42" viewBox="0 0 390 42" fill="none" xmlns="http://www.w3.org/2000/svg">
<g clip-path="url(#clip0_876_869)">
<rect width="390" height="42" fill="#3E1E57"/>
<circle cx="70" cy="49" r="41" fill="#FFFBD6" fill-opacity="0.6"/>
<ellipse cx="168" cy="56" rx="153" ry="39" fill="#9E74A9" fill-opacity="0.7"/>
<ellipse cx="-12" cy="46.5" rx="164" ry="25.5" fill="#721A89"/>
<path d="M341 51.5C341 61.165 302.273 69 254.5 69C206.727 69 168 61.165 168 51.5C168 41.835 202 40.5 239.933 34.5C254 32.5929 341 41.835 341 51.5Z" fill="#721A89"/>
<path d="M385 45.5C385 55.165 346.273 63 298.5 63C250.727 63 212 55.165 212 45.5C212 35.835 246.5 33.7124 295.5 27.6837C313.5 24.7917 385 35.835 385 45.5Z" fill="#721A89"/>
<path d="M427 40.5C427 50.165 388.273 58 340.5 58C292.727 58 254 50.165 254 40.5C268.5 34.228 285 28.2119 330 21.7977C358 20.5 427 30.835 427 40.5Z" fill="#721A89"/>
<path d="M476 34.5C476 44.165 437.273 52 389.5 52C341.727 52 303 44.165 303 34.5C303 24.835 341.727 17 389.5 17C437.273 17 476 24.835 476 34.5Z" fill="#721A89"/>
<path d="M34 18.92H30.52V29H28.6V18.92H25.12V17.24H34V18.92ZM43.6972 27.32C43.6972 27.784 43.5292 28.184 43.1932 28.52C42.8732 28.84 42.4812 29 42.0172 29H36.9772C36.5132 29 36.1132 28.84 35.7772 28.52C35.4572 28.184 35.2972 27.784 35.2972 27.32V22.28C35.2972 21.816 35.4572 21.424 35.7772 21.104C36.1132 20.768 36.5132 20.6 36.9772 20.6H42.0172C42.4812 20.6 42.8732 20.768 43.1932 21.104C43.5292 21.424 43.6972 21.816 43.6972 22.28V27.32ZM42.0172 27.56V22.04H36.9772V27.56H42.0172ZM58.1875 18.92H54.7075V29H52.7875V18.92H49.3075V17.24H58.1875V18.92ZM68.1247 29H66.4447V22.04H61.4047V29H59.7247V16.76L61.4047 15.08V21.8L62.6047 20.6H66.4447C66.9087 20.6 67.3007 20.768 67.6207 21.104C67.9567 21.424 68.1247 21.816 68.1247 22.28V29ZM79.3847 29H72.6647C72.2007 29 71.8007 28.84 71.4647 28.52C71.1447 28.184 70.9847 27.784 70.9847 27.32V22.28C70.9847 21.816 71.1447 21.424 71.4647 21.104C71.8007 20.768 72.2007 20.6 72.6647 20.6H77.7047C78.1687 20.6 78.5607 20.768 78.8807 21.104C79.2167 21.424 79.3847 21.816 79.3847 22.28V23.96L77.7047 25.64H72.9047L74.3447 24.2H77.7047V22.04H72.6647V27.56H79.3847V29ZM94.7084 25.64H88.2284V29H86.3084V20.6L87.9884 18.92H86.3084V17.24H94.7084V18.92H88.2284V25.4L89.6684 23.96H94.7084V25.64ZM105.494 29H103.814V27.8L102.614 29H98.7741C98.3101 29 97.9101 28.84 97.5741 28.52C97.2541 28.184 97.0941 27.784 97.0941 27.32V20.6H98.7741V27.56H103.814V20.6H105.494V29ZM113.88 29H110.52C110.056 29 109.656 28.84 109.32 28.52C109 28.184 108.84 27.784 108.84 27.32V22.04H106.44L107.88 20.6H108.84V18.92L110.52 17.24V20.6H113.88V22.04H110.52V27.56H113.88V29ZM124.182 29H122.502V27.8L121.302 29H117.462C116.998 29 116.598 28.84 116.262 28.52C115.942 28.184 115.782 27.784 115.782 27.32V20.6H117.462V27.56H122.502V20.6H124.182V29ZM133.767 23.96H132.087V22.04H128.727V29H127.047V20.6H128.727V21.8L129.927 20.6H132.087C132.551 20.6 132.943 20.768 133.263 21.104C133.599 21.424 133.767 21.816 133.767 22.28V23.96ZM144.299 29H137.579C137.115 29 136.715 28.84 136.379 28.52C136.059 28.184 135.899 27.784 135.899 27.32V22.28C135.899 21.816 136.059 21.424 136.379 21.104C136.715 20.768 137.115 20.6 137.579 20.6H142.619C143.083 20.6 143.475 20.768 143.795 21.104C144.131 21.424 144.299 21.816 144.299 22.28V23.96L142.619 25.64H137.819L139.259 24.2H142.619V22.04H137.579V27.56H144.299V29Z" fill="white"/>
<path d="M357.5 7L358.433 11.5666L363 12.5L358.433 13.4334L357.5 18L356.567 13.4334L352 12.5L356.567 11.5666L357.5 7Z" fill="#E8FF59" fill-opacity="0.6"/>
<path d="M339.49 18.2405L339.802 20.7801L342.26 21.4906L339.72 21.8016L339.009 24.2596L338.698 21.72L336.24 21.0095L338.78 20.6985L339.49 18.2405Z" fill="#E8FF59" fill-opacity="0.6"/>
<path d="M310.458 7.2643L312.138 11.3863L316.589 11.4579L312.467 13.1385L312.396 17.5894L310.715 13.4674L306.264 13.3958L310.386 11.7152L310.458 7.2643Z" fill="#E8FF59" fill-opacity="0.6"/>
<path d="M234.195 21.9452L234.506 24.4848L236.964 25.1952L234.425 25.5063L233.714 27.9643L233.403 25.4246L230.945 24.7142L233.485 24.4032L234.195 21.9452Z" fill="#E8FF59" fill-opacity="0.6"/>
<path d="M147.987 7.24242L148.716 9.69499L151.258 9.98693L148.805 10.7158L148.513 13.2577L147.784 10.8051L145.242 10.5132L147.695 9.7843L147.987 7.24242Z" fill="#E8FF59" fill-opacity="0.6"/>
<path d="M205.163 10.969L206.843 15.091L211.294 15.1626L207.172 16.8432L207.1 21.2941L205.42 17.1721L200.969 17.1005L205.091 15.4199L205.163 10.969Z" fill="#E8FF59" fill-opacity="0.6"/>
<path d="M128.021 11.0207L128.7 14.3419L132.021 15.0207L128.7 15.6995L128.021 19.0207L127.342 15.6995L124.021 15.0207L127.342 14.3419L128.021 11.0207Z" fill="#E8FF59" fill-opacity="0.6"/>
<path d="M66.4906 3.24051L66.8017 5.78013L69.2596 6.49056L66.72 6.8016L66.0096 9.25958L65.6985 6.71996L63.2406 6.00953L65.7802 5.69849L66.4906 3.24051Z" fill="#E8FF59" fill-opacity="0.6"/>
<path d="M9.98097 8.43577L11.1881 12.4975L15.3977 12.981L11.336 14.1881L10.8525 18.3977L9.64541 14.336L5.43578 13.8525L9.4975 12.6454L9.98097 8.43577Z" fill="#E8FF59" fill-opacity="0.6"/>
<path d="M34.1626 32.969L35.8432 37.091L40.2941 37.1626L36.1721 38.8432L36.1005 43.2941L34.4199 39.1721L29.969 39.1005L34.091 37.4199L34.1626 32.969Z" fill="#E8FF59" fill-opacity="0.6"/>
<path d="M163.833 29.1901L164.114 34.2982L169.541 36.2891L163.76 36.3037L161.749 41.0078L161.469 35.8998L156.042 33.9088L161.823 33.8942L163.833 29.1901Z" fill="#E8FF59" fill-opacity="0.6"/>
<path d="M397.038 32.7601C396.802 34.4015 395.766 35.9162 393.9 37.2867C392.031 38.6584 389.369 39.8556 385.973 40.8609C379.182 42.871 369.568 44.0834 357.809 44.4621C334.297 45.2194 302.316 42.6418 267.442 36.5433C232.569 30.4449 201.435 21.9851 179.293 13.2441C168.217 8.87203 159.417 4.43942 153.525 0.211577C150.578 -1.90301 148.383 -3.9496 146.993 -5.89123C145.603 -7.83108 145.044 -9.6247 145.281 -11.2661C145.517 -12.9074 146.553 -14.4222 148.419 -15.7927C150.288 -17.1644 152.95 -18.3615 156.346 -19.3669C163.137 -21.377 172.75 -22.5894 184.51 -22.9681C208.022 -23.7254 240.003 -21.1478 274.876 -15.0493C309.75 -8.95085 340.884 -0.491037 363.026 8.24995C374.102 12.622 382.902 17.0546 388.794 21.2824C391.74 23.397 393.935 25.4436 395.326 27.3852C396.716 29.3251 397.275 31.1187 397.038 32.7601Z" stroke="#B77EB1" stroke-opacity="0.8"/>
<path d="M398 23.3562C397.852 25.0108 396.899 26.5908 395.11 28.0806C393.319 29.5718 390.725 30.9405 387.389 32.1657C380.719 34.6154 371.188 36.453 359.469 37.5985C336.04 39.8888 303.976 39.4029 268.836 35.591C233.696 31.7791 202.162 25.366 179.589 18.0855C168.298 14.4439 159.274 10.5935 153.166 6.75766C150.111 4.83915 147.81 2.93947 146.317 1.09203C144.826 -0.753635 144.171 -2.50797 144.319 -4.16266C144.467 -5.81734 145.42 -7.39731 147.209 -8.8871C149 -10.3783 151.593 -11.747 154.93 -12.9722C161.6 -15.4219 171.131 -17.2595 182.85 -18.405C206.279 -20.6953 238.343 -20.2094 273.483 -16.3975C308.623 -12.5856 340.157 -6.17251 362.73 1.10802C374.021 4.74958 383.045 8.60001 389.153 12.4358C392.208 14.3544 394.509 16.254 396.002 18.1015C397.493 19.9471 398.148 21.7015 398 23.3562Z" stroke="#8B2080" stroke-opacity="0.61"/>
<path d="M298.606 -3.91363C298.67 -3.69607 298.63 -3.37794 298.337 -2.91936C298.046 -2.46379 297.544 -1.93582 296.822 -1.34747C295.381 -0.173561 293.159 1.16451 290.305 2.58018C284.604 5.40783 276.471 8.50152 267.259 11.1843C258.047 13.867 249.524 15.6239 243.197 16.2991C240.029 16.6372 237.436 16.7013 235.59 16.4846C234.665 16.376 233.958 16.2001 233.468 15.9721C232.974 15.7427 232.77 15.4955 232.707 15.2779C232.643 15.0603 232.683 14.7422 232.976 14.2836C233.267 13.8281 233.769 13.3001 234.491 12.7117C235.932 11.5378 238.154 10.1998 241.008 8.7841C246.709 5.95645 254.842 2.86276 264.054 0.180003C273.266 -2.50275 281.789 -4.25958 288.116 -4.93482C291.284 -5.27288 293.877 -5.33701 295.723 -5.12031C296.648 -5.01171 297.355 -4.8358 297.845 -4.60786C298.339 -4.3784 298.543 -4.13119 298.606 -3.91363Z" stroke="white" stroke-opacity="0.9"/>
<circle cx="265.656" cy="5.68215" r="18.6921" transform="rotate(-16.2368 265.656 5.68215)" fill="white" fill-opacity="0.9"/>
</g>
<defs>
<clipPath id="clip0_876_869">
<rect width="390" height="42" fill="white"/>
</clipPath>
</defs>
</svg>
