<svg width="390" height="42" viewBox="0 0 390 42" fill="none" xmlns="http://www.w3.org/2000/svg">
<g clip-path="url(#clip0_876_812)">
<rect width="390" height="42" fill="white"/>
<rect width="390" height="42" fill="url(#paint0_radial_876_812)" fill-opacity="0.68"/>
<line x1="-20.8459" y1="2.52434" x2="121.154" y2="48.5243" stroke="black" stroke-opacity="0.5"/>
<line x1="-6.34268" y1="49.6359" x2="78.6573" y2="-30.3641" stroke="black"/>
<line x1="285.919" y1="25.5066" x2="444.919" y2="-0.493447" stroke="black"/>
<line x1="223.171" y1="-15.4697" x2="445.171" y2="65.5303" stroke="black"/>
<path d="M151.79 23.56C154.083 22.84 155.23 21.78 155.23 20.38C155.23 19.82 154.99 19.3 154.51 18.82C154.03 18.34 153.47 18.1 152.83 18.1C151.75 18.1 150.803 18.8667 149.99 20.4L149.77 20.34C150.396 18.3133 151.623 17.3 153.45 17.3C154.383 17.3 155.103 17.5467 155.61 18.04C156.13 18.5333 156.39 19.1333 156.39 19.84C156.39 20.8533 155.81 21.7267 154.65 22.46C156.236 23.14 157.03 24.3 157.03 25.94C157.03 27.2467 156.536 28.2933 155.55 29.08C154.576 29.8667 153.336 30.26 151.83 30.26C150.443 30.26 149.75 29.9467 149.75 29.32C149.75 28.8933 149.95 28.68 150.35 28.68C150.416 28.68 150.476 28.6933 150.53 28.72C151.743 29.2933 152.616 29.58 153.15 29.58C153.99 29.58 154.67 29.2933 155.19 28.72C155.723 28.1333 155.99 27.46 155.99 26.7C155.99 24.74 154.596 23.76 151.81 23.76L151.79 23.56Z" fill="black"/>
<path d="M147.915 30H140.595V29.78L143.935 26.22C145.749 24.3 146.655 22.6733 146.655 21.34C146.655 20.54 146.395 19.8533 145.875 19.28C145.369 18.7067 144.669 18.42 143.775 18.42C142.642 18.42 141.702 19.3267 140.955 21.14L140.615 21.04C141.122 18.5467 142.449 17.3 144.595 17.3C145.529 17.3 146.329 17.62 146.995 18.26C147.662 18.9 147.995 19.7067 147.995 20.68C147.995 22.04 147.195 23.5667 145.595 25.26L142.135 28.9H146.935C147.202 28.9 147.442 28.84 147.655 28.72C147.869 28.5867 148.222 28.1267 148.715 27.34L148.955 27.42L147.915 30Z" fill="black"/>
<path d="M140.081 23.8C140.081 25.6533 139.707 27.1933 138.961 28.42C138.227 29.6467 137.187 30.26 135.841 30.26C134.494 30.26 133.447 29.6533 132.701 28.44C131.967 27.2133 131.601 25.6733 131.601 23.82C131.601 21.9533 131.967 20.4 132.701 19.16C133.447 17.92 134.494 17.3 135.841 17.3C137.187 17.3 138.227 17.92 138.961 19.16C139.707 20.3867 140.081 21.9333 140.081 23.8ZM133.081 23.78C133.081 25.4733 133.321 26.9067 133.801 28.08C134.281 29.2533 134.961 29.84 135.841 29.84C136.721 29.84 137.401 29.2533 137.881 28.08C138.361 26.8933 138.601 25.46 138.601 23.78C138.601 22.0867 138.347 20.6533 137.841 19.48C137.347 18.3067 136.674 17.72 135.821 17.72C134.967 17.72 134.294 18.3267 133.801 19.54C133.321 20.7533 133.081 22.1667 133.081 23.78Z" fill="black"/>
<path d="M130.126 30H122.806V29.78L126.146 26.22C127.959 24.3 128.866 22.6733 128.866 21.34C128.866 20.54 128.606 19.8533 128.086 19.28C127.579 18.7067 126.879 18.42 125.986 18.42C124.853 18.42 123.913 19.3267 123.166 21.14L122.826 21.04C123.333 18.5467 124.659 17.3 126.806 17.3C127.739 17.3 128.539 17.62 129.206 18.26C129.873 18.9 130.206 19.7067 130.206 20.68C130.206 22.04 129.406 23.5667 127.806 25.26L124.346 28.9H129.146C129.413 28.9 129.653 28.84 129.866 28.72C130.079 28.5867 130.433 28.1267 130.926 27.34L131.166 27.42L130.126 30Z" fill="black"/>
<path d="M116.097 22.06H113.657V28.04C113.657 28.7733 113.797 29.2467 114.077 29.46C114.37 29.66 114.864 29.76 115.557 29.76V30H110.677V29.76C111.33 29.76 111.777 29.6533 112.017 29.44C112.27 29.2133 112.397 28.7467 112.397 28.04V22.06H110.697V21.62H112.397V21.1C112.397 18.4733 113.47 17.16 115.617 17.16C116.124 17.16 116.564 17.2733 116.937 17.5C117.31 17.7267 117.497 18 117.497 18.32C117.497 18.76 117.297 18.98 116.897 18.98C116.71 18.98 116.324 18.66 115.737 18.02C115.484 17.74 115.224 17.6 114.957 17.6C114.077 17.6 113.637 18.1867 113.637 19.36V21.62H116.097V22.06Z" fill="black"/>
<path d="M110.222 25.72C110.222 26.8933 109.836 27.9333 109.062 28.84C108.302 29.7333 107.316 30.18 106.102 30.18C104.889 30.18 103.889 29.76 103.102 28.92C102.329 28.0667 101.942 27.0133 101.942 25.76C101.942 24.4933 102.322 23.4467 103.082 22.62C103.842 21.78 104.816 21.36 106.002 21.36C107.256 21.36 108.269 21.7533 109.042 22.54C109.829 23.3133 110.222 24.3733 110.222 25.72ZM108.862 26.26C108.862 25.0333 108.576 24 108.002 23.16C107.442 22.3067 106.729 21.88 105.862 21.88C105.156 21.88 104.556 22.1533 104.062 22.7C103.569 23.2333 103.322 23.94 103.322 24.82C103.322 26.2067 103.589 27.36 104.122 28.28C104.656 29.2 105.389 29.66 106.322 29.66C107.056 29.66 107.662 29.36 108.142 28.76C108.622 28.16 108.862 27.3267 108.862 26.26Z" fill="black"/>
<path d="M95.2481 21.78C94.8348 21.8467 94.5348 22.1333 94.3481 22.64L91.6481 29.54C91.1015 31.0333 90.5948 32.04 90.1281 32.56C89.6615 33.08 89.1081 33.34 88.4681 33.34C87.5748 33.34 87.1281 33.0133 87.1281 32.36C87.1281 31.8533 87.4348 31.6 88.0481 31.6C88.2615 31.6 88.4948 31.6533 88.7481 31.76C89.0015 31.88 89.1881 31.94 89.3081 31.94C89.5881 31.94 89.9748 31.44 90.4681 30.44C90.9615 29.44 91.2081 28.82 91.2081 28.58C91.2081 28.34 90.8215 27.5733 90.0481 26.28L87.7281 22.42C87.5148 22.0867 87.1348 21.8667 86.5881 21.76V21.54H90.4681V21.78C89.6948 21.78 89.3081 22.0467 89.3081 22.58C89.3081 22.7667 89.3815 22.9867 89.5281 23.24L91.8481 27.24L93.1681 23.84C93.2881 23.4667 93.3748 23.2067 93.4281 23.06C93.5348 22.7533 93.5881 22.5867 93.5881 22.56C93.5881 22.04 93.2948 21.78 92.7081 21.78V21.54H95.2481V21.78Z" fill="black"/>
<path d="M86.4133 22.06H84.3533V27.52C84.3533 28.6533 84.7266 29.22 85.4733 29.22C85.8866 29.22 86.2666 29 86.6133 28.56L86.8533 28.76C86.3466 29.7067 85.6133 30.18 84.6533 30.18C83.6133 30.18 83.0933 29.3867 83.0933 27.8V22.06H81.9333L81.8533 21.94C81.8533 21.8733 81.9133 21.8067 82.0333 21.74C82.7799 21.3133 83.2999 20.8133 83.5933 20.24C83.8466 19.7467 84.0466 19.3667 84.1933 19.1C84.2999 19.1 84.3533 19.18 84.3533 19.34V21.62H86.4133V22.06Z" fill="black"/>
<path d="M81.7188 29.32C81.2255 29.44 80.7988 29.5667 80.4388 29.7C79.9455 29.9 79.5521 30.0533 79.2588 30.16L79.2188 28.42C78.1388 29.5933 77.1588 30.18 76.2788 30.18C74.9055 30.18 74.2188 29.3667 74.2188 27.74V23.02C74.2188 22.18 73.7721 21.76 72.8788 21.76V21.54H75.4788V27.68C75.4788 28.6267 75.9988 29.1 77.0388 29.1C77.5188 29.1 77.9855 28.9333 78.4388 28.6C78.9055 28.2533 79.1388 27.8267 79.1388 27.32V23.04C79.1388 22.2267 78.6188 21.82 77.5788 21.82V21.54H80.3988V27.98C80.3988 28.7267 80.8388 29.1 81.7188 29.1V29.32Z" fill="black"/>
<path d="M73.179 29.24C72.659 29.8667 72.1056 30.18 71.519 30.18C70.8123 30.18 70.459 29.6867 70.459 28.7C69.3256 29.6867 68.359 30.18 67.559 30.18C67.0256 30.18 66.559 30.0067 66.159 29.66C65.7723 29.3133 65.579 28.84 65.579 28.24C65.579 27.5067 65.8723 26.8933 66.459 26.4C67.0456 25.9067 68.3723 25.26 70.439 24.46V23.36C70.439 22.2667 69.899 21.72 68.819 21.72C68.4723 21.72 68.139 21.82 67.819 22.02C67.499 22.2067 67.339 22.4533 67.339 22.76C67.339 22.9467 67.359 23.1667 67.399 23.42C67.4123 23.4733 67.419 23.52 67.419 23.56C67.419 24.0267 67.1856 24.26 66.719 24.26C66.199 24.26 65.939 23.9933 65.939 23.46C65.939 22.9133 66.219 22.4267 66.779 22C67.3523 21.5733 68.0856 21.36 68.979 21.36C69.8856 21.36 70.5523 21.56 70.979 21.96C71.419 22.3467 71.639 23.1467 71.639 24.36V28.02C71.639 28.8333 71.8656 29.24 72.319 29.24C72.5323 29.24 72.819 29.0933 73.179 28.8V29.24ZM70.439 24.9C68.1856 25.6467 67.059 26.56 67.059 27.64C67.059 28.7067 67.4923 29.24 68.359 29.24C68.8923 29.24 69.3723 29.1067 69.799 28.84C70.2256 28.56 70.439 28.1733 70.439 27.68V24.9Z" fill="black"/>
<path d="M64.999 27.06C64.7324 27.94 64.239 28.68 63.519 29.28C62.799 29.88 61.9657 30.18 61.019 30.18C59.9657 30.18 59.1124 29.8067 58.459 29.06C57.819 28.3133 57.499 27.2867 57.499 25.98C57.499 24.5533 57.8724 23.4267 58.619 22.6C59.379 21.7733 60.2857 21.36 61.339 21.36C62.339 21.36 63.139 21.66 63.739 22.26C64.339 22.8467 64.639 23.6667 64.639 24.72H58.479C58.479 26.1067 58.7524 27.18 59.299 27.94C59.8457 28.6867 60.5724 29.06 61.479 29.06C62.7457 29.06 63.819 28.3467 64.699 26.92L64.999 27.06ZM63.059 24.28C62.8324 22.7333 62.1257 21.96 60.939 21.96C59.619 21.96 58.819 22.7333 58.539 24.28H63.059Z" fill="black"/>
<path d="M45.64 17.56H50.9C54.1933 17.56 55.84 18.62 55.84 20.74C55.84 22.1267 55.0067 23.0267 53.34 23.44C55.42 23.92 56.46 25.0067 56.46 26.7C56.46 27.7 56.0467 28.5 55.22 29.1C54.4067 29.7 53.3067 30 51.92 30H45.64V29.7C46.44 29.7 46.9733 29.58 47.24 29.34C47.52 29.1 47.66 28.6333 47.66 27.94V19.6C47.66 18.92 47.52 18.46 47.24 18.22C46.96 17.98 46.4267 17.86 45.64 17.86V17.56ZM49.1 28.72C49.1 29.2267 49.6667 29.48 50.8 29.48C53.4267 29.48 54.74 28.5267 54.74 26.62C54.74 25.78 54.34 25.1 53.54 24.58C52.74 24.0467 51.26 23.78 49.1 23.78V28.72ZM49.1 23.24L51.16 23.22C53.3067 23.22 54.38 22.4267 54.38 20.84C54.38 19.96 54 19.28 53.24 18.8C52.4933 18.32 51.5333 18.08 50.36 18.08C49.52 18.08 49.1 18.2667 49.1 18.64V23.24Z" fill="black"/>
<path d="M151.79 23.36C154.083 22.64 155.23 21.58 155.23 20.18C155.23 19.62 154.99 19.1 154.51 18.62C154.03 18.14 153.47 17.9 152.83 17.9C151.75 17.9 150.803 18.6666 149.99 20.2L149.77 20.14C150.396 18.1133 151.623 17.1 153.45 17.1C154.383 17.1 155.103 17.3466 155.61 17.84C156.13 18.3333 156.39 18.9333 156.39 19.64C156.39 20.6533 155.81 21.5266 154.65 22.26C156.236 22.94 157.03 24.1 157.03 25.74C157.03 27.0466 156.536 28.0933 155.55 28.88C154.576 29.6666 153.336 30.06 151.83 30.06C150.443 30.06 149.75 29.7466 149.75 29.12C149.75 28.6933 149.95 28.48 150.35 28.48C150.416 28.48 150.476 28.4933 150.53 28.52C151.743 29.0933 152.616 29.38 153.15 29.38C153.99 29.38 154.67 29.0933 155.19 28.52C155.723 27.9333 155.99 27.26 155.99 26.5C155.99 24.54 154.596 23.56 151.81 23.56L151.79 23.36Z" fill="black"/>
<path d="M147.915 29.8H140.595V29.58L143.935 26.02C145.749 24.1 146.655 22.4733 146.655 21.14C146.655 20.34 146.395 19.6533 145.875 19.08C145.369 18.5066 144.669 18.22 143.775 18.22C142.642 18.22 141.702 19.1266 140.955 20.94L140.615 20.84C141.122 18.3466 142.449 17.1 144.595 17.1C145.529 17.1 146.329 17.42 146.995 18.06C147.662 18.7 147.995 19.5066 147.995 20.48C147.995 21.84 147.195 23.3666 145.595 25.06L142.135 28.7H146.935C147.202 28.7 147.442 28.64 147.655 28.52C147.869 28.3866 148.222 27.9266 148.715 27.14L148.955 27.22L147.915 29.8Z" fill="black"/>
<path d="M140.081 23.6C140.081 25.4533 139.707 26.9933 138.961 28.22C138.227 29.4466 137.187 30.06 135.841 30.06C134.494 30.06 133.447 29.4533 132.701 28.24C131.967 27.0133 131.601 25.4733 131.601 23.62C131.601 21.7533 131.967 20.2 132.701 18.96C133.447 17.72 134.494 17.1 135.841 17.1C137.187 17.1 138.227 17.72 138.961 18.96C139.707 20.1866 140.081 21.7333 140.081 23.6ZM133.081 23.58C133.081 25.2733 133.321 26.7066 133.801 27.88C134.281 29.0533 134.961 29.64 135.841 29.64C136.721 29.64 137.401 29.0533 137.881 27.88C138.361 26.6933 138.601 25.26 138.601 23.58C138.601 21.8866 138.347 20.4533 137.841 19.28C137.347 18.1066 136.674 17.52 135.821 17.52C134.967 17.52 134.294 18.1266 133.801 19.34C133.321 20.5533 133.081 21.9666 133.081 23.58Z" fill="black"/>
<path d="M130.126 29.8H122.806V29.58L126.146 26.02C127.959 24.1 128.866 22.4733 128.866 21.14C128.866 20.34 128.606 19.6533 128.086 19.08C127.579 18.5066 126.879 18.22 125.986 18.22C124.853 18.22 123.913 19.1266 123.166 20.94L122.826 20.84C123.333 18.3466 124.659 17.1 126.806 17.1C127.739 17.1 128.539 17.42 129.206 18.06C129.873 18.7 130.206 19.5066 130.206 20.48C130.206 21.84 129.406 23.3666 127.806 25.06L124.346 28.7H129.146C129.413 28.7 129.653 28.64 129.866 28.52C130.079 28.3866 130.433 27.9266 130.926 27.14L131.166 27.22L130.126 29.8Z" fill="black"/>
<path d="M116.097 21.86H113.657V27.84C113.657 28.5733 113.797 29.0467 114.077 29.26C114.37 29.46 114.864 29.56 115.557 29.56V29.8H110.677V29.56C111.33 29.56 111.777 29.4533 112.017 29.24C112.27 29.0133 112.397 28.5467 112.397 27.84V21.86H110.697V21.42H112.397V20.9C112.397 18.2733 113.47 16.96 115.617 16.96C116.124 16.96 116.564 17.0733 116.937 17.3C117.31 17.5267 117.497 17.8 117.497 18.12C117.497 18.56 117.297 18.78 116.897 18.78C116.71 18.78 116.324 18.46 115.737 17.82C115.484 17.54 115.224 17.4 114.957 17.4C114.077 17.4 113.637 17.9867 113.637 19.16V21.42H116.097V21.86Z" fill="black"/>
<path d="M110.222 25.52C110.222 26.6933 109.836 27.7333 109.062 28.64C108.302 29.5333 107.316 29.98 106.102 29.98C104.889 29.98 103.889 29.56 103.102 28.72C102.329 27.8667 101.942 26.8133 101.942 25.56C101.942 24.2933 102.322 23.2467 103.082 22.42C103.842 21.58 104.816 21.16 106.002 21.16C107.256 21.16 108.269 21.5533 109.042 22.34C109.829 23.1133 110.222 24.1733 110.222 25.52ZM108.862 26.06C108.862 24.8333 108.576 23.8 108.002 22.96C107.442 22.1067 106.729 21.68 105.862 21.68C105.156 21.68 104.556 21.9533 104.062 22.5C103.569 23.0333 103.322 23.74 103.322 24.62C103.322 26.0067 103.589 27.16 104.122 28.08C104.656 29 105.389 29.46 106.322 29.46C107.056 29.46 107.662 29.16 108.142 28.56C108.622 27.96 108.862 27.1267 108.862 26.06Z" fill="black"/>
<path d="M95.2481 21.58C94.8348 21.6467 94.5348 21.9333 94.3481 22.44L91.6481 29.34C91.1015 30.8333 90.5948 31.84 90.1281 32.36C89.6615 32.88 89.1081 33.14 88.4681 33.14C87.5748 33.14 87.1281 32.8133 87.1281 32.16C87.1281 31.6533 87.4348 31.4 88.0481 31.4C88.2615 31.4 88.4948 31.4533 88.7481 31.56C89.0015 31.68 89.1881 31.74 89.3081 31.74C89.5881 31.74 89.9748 31.24 90.4681 30.24C90.9615 29.24 91.2081 28.62 91.2081 28.38C91.2081 28.14 90.8215 27.3733 90.0481 26.08L87.7281 22.22C87.5148 21.8867 87.1348 21.6667 86.5881 21.56V21.34H90.4681V21.58C89.6948 21.58 89.3081 21.8467 89.3081 22.38C89.3081 22.5667 89.3815 22.7867 89.5281 23.04L91.8481 27.04L93.1681 23.64C93.2881 23.2667 93.3748 23.0067 93.4281 22.86C93.5348 22.5533 93.5881 22.3867 93.5881 22.36C93.5881 21.84 93.2948 21.58 92.7081 21.58V21.34H95.2481V21.58Z" fill="black"/>
<path d="M86.4133 21.86H84.3533V27.32C84.3533 28.4533 84.7266 29.02 85.4733 29.02C85.8866 29.02 86.2666 28.8 86.6133 28.36L86.8533 28.56C86.3466 29.5067 85.6133 29.98 84.6533 29.98C83.6133 29.98 83.0933 29.1867 83.0933 27.6V21.86H81.9333L81.8533 21.74C81.8533 21.6733 81.9133 21.6067 82.0333 21.54C82.7799 21.1133 83.2999 20.6133 83.5933 20.04C83.8466 19.5467 84.0466 19.1667 84.1933 18.9C84.2999 18.9 84.3533 18.98 84.3533 19.14V21.42H86.4133V21.86Z" fill="black"/>
<path d="M81.7188 29.12C81.2255 29.24 80.7988 29.3667 80.4388 29.5C79.9455 29.7 79.5521 29.8533 79.2588 29.96L79.2188 28.22C78.1388 29.3933 77.1588 29.98 76.2788 29.98C74.9055 29.98 74.2188 29.1667 74.2188 27.54V22.82C74.2188 21.98 73.7721 21.56 72.8788 21.56V21.34H75.4788V27.48C75.4788 28.4267 75.9988 28.9 77.0388 28.9C77.5188 28.9 77.9855 28.7333 78.4388 28.4C78.9055 28.0533 79.1388 27.6267 79.1388 27.12V22.84C79.1388 22.0267 78.6188 21.62 77.5788 21.62V21.34H80.3988V27.78C80.3988 28.5267 80.8388 28.9 81.7188 28.9V29.12Z" fill="black"/>
<path d="M73.179 29.04C72.659 29.6667 72.1056 29.98 71.519 29.98C70.8123 29.98 70.459 29.4867 70.459 28.5C69.3256 29.4867 68.359 29.98 67.559 29.98C67.0256 29.98 66.559 29.8067 66.159 29.46C65.7723 29.1133 65.579 28.64 65.579 28.04C65.579 27.3067 65.8723 26.6933 66.459 26.2C67.0456 25.7067 68.3723 25.06 70.439 24.26V23.16C70.439 22.0667 69.899 21.52 68.819 21.52C68.4723 21.52 68.139 21.62 67.819 21.82C67.499 22.0067 67.339 22.2533 67.339 22.56C67.339 22.7467 67.359 22.9667 67.399 23.22C67.4123 23.2733 67.419 23.32 67.419 23.36C67.419 23.8267 67.1856 24.06 66.719 24.06C66.199 24.06 65.939 23.7933 65.939 23.26C65.939 22.7133 66.219 22.2267 66.779 21.8C67.3523 21.3733 68.0856 21.16 68.979 21.16C69.8856 21.16 70.5523 21.36 70.979 21.76C71.419 22.1467 71.639 22.9467 71.639 24.16V27.82C71.639 28.6333 71.8656 29.04 72.319 29.04C72.5323 29.04 72.819 28.8933 73.179 28.6V29.04ZM70.439 24.7C68.1856 25.4467 67.059 26.36 67.059 27.44C67.059 28.5067 67.4923 29.04 68.359 29.04C68.8923 29.04 69.3723 28.9067 69.799 28.64C70.2256 28.36 70.439 27.9733 70.439 27.48V24.7Z" fill="black"/>
<path d="M64.999 26.86C64.7324 27.74 64.239 28.48 63.519 29.08C62.799 29.68 61.9657 29.98 61.019 29.98C59.9657 29.98 59.1124 29.6067 58.459 28.86C57.819 28.1133 57.499 27.0867 57.499 25.78C57.499 24.3533 57.8724 23.2267 58.619 22.4C59.379 21.5733 60.2857 21.16 61.339 21.16C62.339 21.16 63.139 21.46 63.739 22.06C64.339 22.6467 64.639 23.4667 64.639 24.52H58.479C58.479 25.9067 58.7524 26.98 59.299 27.74C59.8457 28.4867 60.5724 28.86 61.479 28.86C62.7457 28.86 63.819 28.1467 64.699 26.72L64.999 26.86ZM63.059 24.08C62.8324 22.5333 62.1257 21.76 60.939 21.76C59.619 21.76 58.819 22.5333 58.539 24.08H63.059Z" fill="black"/>
<path d="M45.64 17.36H50.9C54.1933 17.36 55.84 18.42 55.84 20.54C55.84 21.9267 55.0067 22.8267 53.34 23.24C55.42 23.72 56.46 24.8067 56.46 26.5C56.46 27.5 56.0467 28.3 55.22 28.9C54.4067 29.5 53.3067 29.8 51.92 29.8H45.64V29.5C46.44 29.5 46.9733 29.38 47.24 29.14C47.52 28.9 47.66 28.4333 47.66 27.74V19.4C47.66 18.72 47.52 18.26 47.24 18.02C46.96 17.78 46.4267 17.66 45.64 17.66V17.36ZM49.1 28.52C49.1 29.0267 49.6667 29.28 50.8 29.28C53.4267 29.28 54.74 28.3267 54.74 26.42C54.74 25.58 54.34 24.9 53.54 24.38C52.74 23.8467 51.26 23.58 49.1 23.58V28.52ZM49.1 23.04L51.16 23.02C53.3067 23.02 54.38 22.2267 54.38 20.64C54.38 19.76 54 19.08 53.24 18.6C52.4933 18.12 51.5333 17.88 50.36 17.88C49.52 17.88 49.1 18.0667 49.1 18.44V23.04Z" fill="black"/>
<path d="M151.79 23.76C154.083 23.04 155.23 21.98 155.23 20.58C155.23 20.02 154.99 19.5 154.51 19.02C154.03 18.54 153.47 18.3 152.83 18.3C151.75 18.3 150.803 19.0667 149.99 20.6L149.77 20.54C150.396 18.5133 151.623 17.5 153.45 17.5C154.383 17.5 155.103 17.7467 155.61 18.24C156.13 18.7333 156.39 19.3333 156.39 20.04C156.39 21.0533 155.81 21.9267 154.65 22.66C156.236 23.34 157.03 24.5 157.03 26.14C157.03 27.4467 156.536 28.4933 155.55 29.28C154.576 30.0667 153.336 30.46 151.83 30.46C150.443 30.46 149.75 30.1467 149.75 29.52C149.75 29.0933 149.95 28.88 150.35 28.88C150.416 28.88 150.476 28.8933 150.53 28.92C151.743 29.4933 152.616 29.78 153.15 29.78C153.99 29.78 154.67 29.4933 155.19 28.92C155.723 28.3333 155.99 27.66 155.99 26.9C155.99 24.94 154.596 23.96 151.81 23.96L151.79 23.76Z" fill="black"/>
<path d="M147.915 30.2H140.595V29.98L143.935 26.42C145.749 24.5 146.655 22.8733 146.655 21.54C146.655 20.74 146.395 20.0533 145.875 19.48C145.369 18.9067 144.669 18.62 143.775 18.62C142.642 18.62 141.702 19.5267 140.955 21.34L140.615 21.24C141.122 18.7467 142.449 17.5 144.595 17.5C145.529 17.5 146.329 17.82 146.995 18.46C147.662 19.1 147.995 19.9067 147.995 20.88C147.995 22.24 147.195 23.7667 145.595 25.46L142.135 29.1H146.935C147.202 29.1 147.442 29.04 147.655 28.92C147.869 28.7867 148.222 28.3267 148.715 27.54L148.955 27.62L147.915 30.2Z" fill="black"/>
<path d="M140.081 24C140.081 25.8533 139.707 27.3933 138.961 28.62C138.227 29.8467 137.187 30.46 135.841 30.46C134.494 30.46 133.447 29.8533 132.701 28.64C131.967 27.4133 131.601 25.8733 131.601 24.02C131.601 22.1533 131.967 20.6 132.701 19.36C133.447 18.12 134.494 17.5 135.841 17.5C137.187 17.5 138.227 18.12 138.961 19.36C139.707 20.5867 140.081 22.1333 140.081 24ZM133.081 23.98C133.081 25.6733 133.321 27.1067 133.801 28.28C134.281 29.4533 134.961 30.04 135.841 30.04C136.721 30.04 137.401 29.4533 137.881 28.28C138.361 27.0933 138.601 25.66 138.601 23.98C138.601 22.2867 138.347 20.8533 137.841 19.68C137.347 18.5067 136.674 17.92 135.821 17.92C134.967 17.92 134.294 18.5267 133.801 19.74C133.321 20.9533 133.081 22.3667 133.081 23.98Z" fill="black"/>
<path d="M130.126 30.2H122.806V29.98L126.146 26.42C127.959 24.5 128.866 22.8733 128.866 21.54C128.866 20.74 128.606 20.0533 128.086 19.48C127.579 18.9067 126.879 18.62 125.986 18.62C124.853 18.62 123.913 19.5267 123.166 21.34L122.826 21.24C123.333 18.7467 124.659 17.5 126.806 17.5C127.739 17.5 128.539 17.82 129.206 18.46C129.873 19.1 130.206 19.9067 130.206 20.88C130.206 22.24 129.406 23.7667 127.806 25.46L124.346 29.1H129.146C129.413 29.1 129.653 29.04 129.866 28.92C130.079 28.7867 130.433 28.3267 130.926 27.54L131.166 27.62L130.126 30.2Z" fill="black"/>
<path d="M116.097 22.26H113.657V28.24C113.657 28.9733 113.797 29.4467 114.077 29.66C114.37 29.86 114.864 29.96 115.557 29.96V30.2H110.677V29.96C111.33 29.96 111.777 29.8533 112.017 29.64C112.27 29.4133 112.397 28.9467 112.397 28.24V22.26H110.697V21.82H112.397V21.3C112.397 18.6733 113.47 17.36 115.617 17.36C116.124 17.36 116.564 17.4733 116.937 17.7C117.31 17.9267 117.497 18.2 117.497 18.52C117.497 18.96 117.297 19.18 116.897 19.18C116.71 19.18 116.324 18.86 115.737 18.22C115.484 17.94 115.224 17.8 114.957 17.8C114.077 17.8 113.637 18.3867 113.637 19.56V21.82H116.097V22.26Z" fill="black"/>
<path d="M110.222 25.92C110.222 27.0934 109.836 28.1334 109.062 29.04C108.302 29.9334 107.316 30.38 106.102 30.38C104.889 30.38 103.889 29.96 103.102 29.12C102.329 28.2667 101.942 27.2134 101.942 25.96C101.942 24.6934 102.322 23.6467 103.082 22.82C103.842 21.98 104.816 21.56 106.002 21.56C107.256 21.56 108.269 21.9534 109.042 22.74C109.829 23.5134 110.222 24.5734 110.222 25.92ZM108.862 26.46C108.862 25.2334 108.576 24.2 108.002 23.36C107.442 22.5067 106.729 22.08 105.862 22.08C105.156 22.08 104.556 22.3534 104.062 22.9C103.569 23.4334 103.322 24.14 103.322 25.02C103.322 26.4067 103.589 27.56 104.122 28.48C104.656 29.4 105.389 29.86 106.322 29.86C107.056 29.86 107.662 29.56 108.142 28.96C108.622 28.36 108.862 27.5267 108.862 26.46Z" fill="black"/>
<path d="M95.2481 21.98C94.8348 22.0467 94.5348 22.3334 94.3481 22.84L91.6481 29.74C91.1015 31.2334 90.5948 32.24 90.1281 32.76C89.6615 33.28 89.1081 33.54 88.4681 33.54C87.5748 33.54 87.1281 33.2134 87.1281 32.56C87.1281 32.0534 87.4348 31.8 88.0481 31.8C88.2615 31.8 88.4948 31.8534 88.7481 31.96C89.0015 32.08 89.1881 32.14 89.3081 32.14C89.5881 32.14 89.9748 31.64 90.4681 30.64C90.9615 29.64 91.2081 29.02 91.2081 28.78C91.2081 28.54 90.8215 27.7734 90.0481 26.48L87.7281 22.62C87.5148 22.2867 87.1348 22.0667 86.5881 21.96V21.74H90.4681V21.98C89.6948 21.98 89.3081 22.2467 89.3081 22.78C89.3081 22.9667 89.3815 23.1867 89.5281 23.44L91.8481 27.44L93.1681 24.04C93.2881 23.6667 93.3748 23.4067 93.4281 23.26C93.5348 22.9534 93.5881 22.7867 93.5881 22.76C93.5881 22.24 93.2948 21.98 92.7081 21.98V21.74H95.2481V21.98Z" fill="black"/>
<path d="M86.4133 22.26H84.3533V27.72C84.3533 28.8534 84.7266 29.42 85.4733 29.42C85.8866 29.42 86.2666 29.2 86.6133 28.76L86.8533 28.96C86.3466 29.9067 85.6133 30.38 84.6533 30.38C83.6133 30.38 83.0933 29.5867 83.0933 28V22.26H81.9333L81.8533 22.14C81.8533 22.0734 81.9133 22.0067 82.0333 21.94C82.7799 21.5134 83.2999 21.0134 83.5933 20.44C83.8466 19.9467 84.0466 19.5667 84.1933 19.3C84.2999 19.3 84.3533 19.38 84.3533 19.54V21.82H86.4133V22.26Z" fill="black"/>
<path d="M81.7188 29.52C81.2255 29.64 80.7988 29.7667 80.4388 29.9C79.9455 30.1 79.5521 30.2534 79.2588 30.36L79.2188 28.62C78.1388 29.7934 77.1588 30.38 76.2788 30.38C74.9055 30.38 74.2188 29.5667 74.2188 27.94V23.22C74.2188 22.38 73.7721 21.96 72.8788 21.96V21.74H75.4788V27.88C75.4788 28.8267 75.9988 29.3 77.0388 29.3C77.5188 29.3 77.9855 29.1334 78.4388 28.8C78.9055 28.4534 79.1388 28.0267 79.1388 27.52V23.24C79.1388 22.4267 78.6188 22.02 77.5788 22.02V21.74H80.3988V28.18C80.3988 28.9267 80.8388 29.3 81.7188 29.3V29.52Z" fill="black"/>
<path d="M73.179 29.44C72.659 30.0667 72.1056 30.38 71.519 30.38C70.8123 30.38 70.459 29.8867 70.459 28.9C69.3256 29.8867 68.359 30.38 67.559 30.38C67.0256 30.38 66.559 30.2067 66.159 29.86C65.7723 29.5134 65.579 29.04 65.579 28.44C65.579 27.7067 65.8723 27.0934 66.459 26.6C67.0456 26.1067 68.3723 25.46 70.439 24.66V23.56C70.439 22.4667 69.899 21.92 68.819 21.92C68.4723 21.92 68.139 22.02 67.819 22.22C67.499 22.4067 67.339 22.6534 67.339 22.96C67.339 23.1467 67.359 23.3667 67.399 23.62C67.4123 23.6734 67.419 23.72 67.419 23.76C67.419 24.2267 67.1856 24.46 66.719 24.46C66.199 24.46 65.939 24.1934 65.939 23.66C65.939 23.1134 66.219 22.6267 66.779 22.2C67.3523 21.7734 68.0856 21.56 68.979 21.56C69.8856 21.56 70.5523 21.76 70.979 22.16C71.419 22.5467 71.639 23.3467 71.639 24.56V28.22C71.639 29.0334 71.8656 29.44 72.319 29.44C72.5323 29.44 72.819 29.2934 73.179 29V29.44ZM70.439 25.1C68.1856 25.8467 67.059 26.76 67.059 27.84C67.059 28.9067 67.4923 29.44 68.359 29.44C68.8923 29.44 69.3723 29.3067 69.799 29.04C70.2256 28.76 70.439 28.3734 70.439 27.88V25.1Z" fill="black"/>
<path d="M64.999 27.26C64.7324 28.14 64.239 28.88 63.519 29.48C62.799 30.08 61.9657 30.38 61.019 30.38C59.9657 30.38 59.1124 30.0067 58.459 29.26C57.819 28.5134 57.499 27.4867 57.499 26.18C57.499 24.7534 57.8724 23.6267 58.619 22.8C59.379 21.9734 60.2857 21.56 61.339 21.56C62.339 21.56 63.139 21.86 63.739 22.46C64.339 23.0467 64.639 23.8667 64.639 24.92H58.479C58.479 26.3067 58.7524 27.38 59.299 28.14C59.8457 28.8867 60.5724 29.26 61.479 29.26C62.7457 29.26 63.819 28.5467 64.699 27.12L64.999 27.26ZM63.059 24.48C62.8324 22.9334 62.1257 22.16 60.939 22.16C59.619 22.16 58.819 22.9334 58.539 24.48H63.059Z" fill="black"/>
<path d="M45.64 17.76H50.9C54.1933 17.76 55.84 18.82 55.84 20.94C55.84 22.3267 55.0067 23.2267 53.34 23.64C55.42 24.12 56.46 25.2067 56.46 26.9C56.46 27.9 56.0467 28.7 55.22 29.3C54.4067 29.9 53.3067 30.2 51.92 30.2H45.64V29.9C46.44 29.9 46.9733 29.78 47.24 29.54C47.52 29.3 47.66 28.8333 47.66 28.14V19.8C47.66 19.12 47.52 18.66 47.24 18.42C46.96 18.18 46.4267 18.06 45.64 18.06V17.76ZM49.1 28.92C49.1 29.4267 49.6667 29.68 50.8 29.68C53.4267 29.68 54.74 28.7267 54.74 26.82C54.74 25.98 54.34 25.3 53.54 24.78C52.74 24.2467 51.26 23.98 49.1 23.98V28.92ZM49.1 23.44L51.16 23.42C53.3067 23.42 54.38 22.6267 54.38 21.04C54.38 20.16 54 19.48 53.24 19C52.4933 18.52 51.5333 18.28 50.36 18.28C49.52 18.28 49.1 18.4667 49.1 18.84V23.44Z" fill="black"/>
</g>
<defs>
<radialGradient id="paint0_radial_876_812" cx="0" cy="0" r="1" gradientUnits="userSpaceOnUse" gradientTransform="translate(195 21) rotate(90) scale(21 195)">
<stop stop-color="#5A5A5A"/>
<stop offset="1" stop-color="#D9D9D9" stop-opacity="0"/>
</radialGradient>
<clipPath id="clip0_876_812">
<rect width="390" height="42" fill="white"/>
</clipPath>
</defs>
</svg>
