<svg width="481" height="481" viewBox="0 0 481 481" fill="none" xmlns="http://www.w3.org/2000/svg">
<g clip-path="url(#clip0_711_672)">
<rect width="481" height="481" fill="white"/>
<path d="M468.969 289.021L459.052 326.033L376.801 303.994L386.719 266.982L468.969 289.021Z" fill="#2E3FDE"/>
<path d="M430.439 146.437C423.222 158.937 411.244 165.533 403.686 161.17C396.127 156.806 395.851 143.135 403.068 130.634C410.285 118.134 422.263 111.538 429.821 115.901C437.38 120.265 437.656 133.937 430.439 146.437Z" fill="#FFC931"/>
<path d="M116.028 451.216L148.476 391L178.532 423.429L116.028 451.216Z" fill="#D82C30"/>
<path d="M268.837 49.714L295.476 82.5875L269.802 92.0151L268.837 49.714Z" fill="#D82C30"/>
<path d="M106 85.5C106 97.3741 96.3741 107 84.5 107C72.6259 107 63 97.3741 63 85.5C63 73.6259 72.6259 64 84.5 64C96.3741 64 106 73.6259 106 85.5Z" fill="#608D00"/>
<path d="M43.3376 229L84.0558 241.338L71.7182 282.056L31 269.718L43.3376 229Z" fill="#FFC931"/>
<path d="M245.626 137.975C241.96 136.848 238.04 136.848 234.374 137.975L201.531 148.069C184.653 153.257 168.625 160.883 153.953 170.708C144.627 176.952 149.047 191.5 160.271 191.5H319.729C330.953 191.5 335.374 176.952 326.048 170.708C311.376 160.883 295.347 153.257 278.469 148.069L245.626 137.975Z" fill="black"/>
<path d="M154.75 340C154.75 335.443 158.444 331.75 163 331.75H317C321.556 331.75 325.25 335.443 325.25 340C325.25 344.556 321.556 348.25 317 348.25H163C158.444 348.25 154.75 344.556 154.75 340Z" fill="black"/>
<path d="M176.75 296C176.75 300.556 180.444 304.25 185 304.25C189.556 304.25 193.25 300.556 193.25 296L193.25 230C193.25 225.443 189.556 221.75 185 221.75C180.444 221.75 176.75 225.443 176.75 230L176.75 296Z" fill="black"/>
<path d="M240 304.25C235.444 304.25 231.75 300.556 231.75 296L231.75 230C231.75 225.443 235.444 221.75 240 221.75C244.556 221.75 248.25 225.443 248.25 230V296C248.25 300.556 244.556 304.25 240 304.25Z" fill="black"/>
<path d="M286.75 296C286.75 300.556 290.444 304.25 295 304.25C299.556 304.25 303.25 300.556 303.25 296V230C303.25 225.443 299.556 221.75 295 221.75C290.444 221.75 286.75 225.443 286.75 230V296Z" fill="black"/>
<path fill-rule="evenodd" clip-rule="evenodd" d="M227.566 128.346C231.759 127.058 236.241 127.058 240.434 128.346L273.277 138.441C290.411 143.707 306.683 151.449 321.577 161.423C333.162 169.18 327.671 187.25 313.729 187.25H154.271C140.329 187.25 134.838 169.18 146.423 161.423C161.317 151.449 177.589 143.707 194.723 138.441L227.566 128.346ZM235.586 144.118C234.553 143.8 233.447 143.8 232.414 144.118L199.571 154.213C186.582 158.205 174.137 163.76 162.508 170.75H305.492C293.863 163.76 281.418 158.205 268.429 154.213L235.586 144.118Z" fill="#C4C4C4"/>
<path d="M148.75 333C148.75 328.443 152.444 324.75 157 324.75H311C315.556 324.75 319.25 328.443 319.25 333C319.25 337.556 315.556 341.25 311 341.25H157C152.444 341.25 148.75 337.556 148.75 333Z" fill="#C4C4C4"/>
<path d="M170.75 289C170.75 293.556 174.444 297.25 179 297.25C183.556 297.25 187.25 293.556 187.25 289L187.25 223C187.25 218.443 183.556 214.75 179 214.75C174.444 214.75 170.75 218.443 170.75 223L170.75 289Z" fill="#C4C4C4"/>
<path d="M234 297.25C229.444 297.25 225.75 293.556 225.75 289L225.75 223C225.75 218.443 229.444 214.75 234 214.75C238.556 214.75 242.25 218.443 242.25 223V289C242.25 293.556 238.556 297.25 234 297.25Z" fill="#C4C4C4"/>
<path d="M280.75 289C280.75 293.556 284.444 297.25 289 297.25C293.556 297.25 297.25 293.556 297.25 289V223C297.25 218.443 293.556 214.75 289 214.75C284.444 214.75 280.75 218.443 280.75 223V289Z" fill="#C4C4C4"/>
<path d="M335.512 408.51H348.914V421.912H335.512V408.51Z" fill="#FFC931"/>
<path d="M350.062 406.786C350.062 409.43 347.919 411.573 345.276 411.573C342.633 411.573 340.49 409.43 340.49 406.786C340.49 404.143 342.633 402 345.276 402C347.919 402 350.062 404.143 350.062 406.786Z" fill="#D82D31"/>
<path d="M333.061 413.485L337.123 417.547L333.061 421.608L329 417.547L333.061 413.485Z" fill="#688731"/>
<path d="M354.658 420.955L345.755 426.095V415.814L354.658 420.955Z" fill="#2E3FDE"/>
<path d="M366.047 419.528C365.469 419.528 364.924 419.42 364.41 419.204C363.897 418.982 363.445 418.673 363.054 418.276C362.663 417.885 362.36 417.43 362.144 416.911C361.928 416.392 361.82 415.844 361.82 415.266C361.82 414.683 361.928 414.132 362.144 413.612C362.36 413.087 362.663 412.627 363.054 412.23C363.445 411.833 363.897 411.527 364.41 411.311C364.924 411.089 365.469 410.979 366.047 410.979C366.63 410.979 367.178 411.089 367.692 411.311C368.205 411.527 368.657 411.833 369.048 412.23C369.433 412.621 369.733 413.079 369.949 413.604C370.165 414.129 370.273 414.683 370.273 415.266V418.863C370.273 419.032 370.215 419.175 370.098 419.291C369.981 419.408 369.838 419.466 369.669 419.466C369.5 419.466 369.363 419.411 369.258 419.3C369.153 419.183 369.101 419.038 369.101 418.863L369.092 418.233C368.695 418.647 368.237 418.968 367.718 419.195C367.205 419.417 366.648 419.528 366.047 419.528ZM366.047 418.364C366.478 418.364 366.881 418.285 367.254 418.128C367.633 417.964 367.96 417.737 368.234 417.445C368.508 417.159 368.721 416.83 368.873 416.456C369.025 416.077 369.101 415.68 369.101 415.266C369.101 414.846 369.025 414.447 368.873 414.067C368.721 413.682 368.508 413.35 368.234 413.07C367.954 412.784 367.628 412.562 367.254 412.405C366.881 412.242 366.478 412.16 366.047 412.16C365.621 412.16 365.221 412.242 364.848 412.405C364.48 412.562 364.157 412.784 363.877 413.07C363.597 413.356 363.378 413.688 363.22 414.067C363.069 414.447 362.993 414.846 362.993 415.266C362.993 415.68 363.069 416.077 363.22 416.456C363.378 416.83 363.597 417.159 363.877 417.445C364.157 417.737 364.48 417.964 364.848 418.128C365.221 418.285 365.621 418.364 366.047 418.364Z" fill="black"/>
<path d="M372.238 419.423C372.075 419.423 371.932 419.367 371.809 419.256C371.693 419.145 371.634 419.005 371.634 418.836V415.441C371.634 414.84 371.748 414.269 371.975 413.726C372.209 413.184 372.53 412.705 372.938 412.291C373.352 411.877 373.828 411.556 374.364 411.329C374.901 411.095 375.467 410.979 376.062 410.979H376.132C376.319 410.979 376.464 411.034 376.569 411.145C376.68 411.25 376.736 411.39 376.736 411.565C376.736 411.734 376.677 411.874 376.561 411.985C376.45 412.09 376.307 412.142 376.132 412.142H376.062C375.63 412.142 375.216 412.227 374.819 412.396C374.423 412.565 374.073 412.802 373.769 413.105C373.466 413.408 373.227 413.764 373.052 414.172C372.883 414.575 372.798 414.998 372.798 415.441V418.836C372.798 419.005 372.743 419.145 372.632 419.256C372.527 419.367 372.395 419.423 372.238 419.423Z" fill="black"/>
<path d="M381.754 419.536C381.165 419.536 380.608 419.431 380.083 419.221C379.564 419.005 379.109 418.708 378.718 418.329C378.321 417.944 378.012 417.498 377.791 416.99C377.569 416.477 377.458 415.928 377.458 415.345V409.054C377.458 408.89 377.516 408.75 377.633 408.634C377.75 408.517 377.887 408.458 378.044 408.458C378.208 408.458 378.348 408.517 378.464 408.634C378.587 408.744 378.648 408.884 378.648 409.054V411.057H382.507C382.67 411.057 382.81 411.116 382.927 411.232C383.044 411.349 383.102 411.489 383.102 411.652C383.102 411.81 383.044 411.944 382.927 412.055C382.816 412.16 382.676 412.212 382.507 412.212H378.648V415.354C378.648 415.774 378.727 416.167 378.884 416.535C379.042 416.903 379.263 417.223 379.549 417.498C379.835 417.772 380.165 417.988 380.538 418.145C380.917 418.297 381.323 418.373 381.754 418.373C382.145 418.373 382.507 418.314 382.839 418.198C383.172 418.075 383.484 417.885 383.776 417.629C383.857 417.565 383.93 417.518 383.994 417.489C384.059 417.454 384.137 417.436 384.231 417.436C384.371 417.436 384.49 417.492 384.589 417.603C384.694 417.708 384.747 417.836 384.747 417.988C384.747 418.075 384.727 418.163 384.686 418.25C384.651 418.338 384.598 418.413 384.528 418.478C384.161 418.828 383.741 419.093 383.268 419.274C382.802 419.449 382.297 419.536 381.754 419.536Z" fill="black"/>
<path d="M386.117 419.423C385.954 419.423 385.814 419.367 385.697 419.256C385.586 419.145 385.531 419.005 385.531 418.836V413.691C385.531 413.318 385.601 412.965 385.741 412.632C385.881 412.3 386.079 412.005 386.336 411.749C386.592 411.492 386.884 411.294 387.211 411.154C387.543 411.014 387.896 410.944 388.269 410.944C388.695 410.944 389.095 411.04 389.468 411.232C389.847 411.419 390.171 411.676 390.44 412.002C390.696 411.676 391.011 411.419 391.385 411.232C391.764 411.04 392.166 410.944 392.592 410.944C392.96 410.944 393.313 411.014 393.651 411.154C393.995 411.294 394.295 411.489 394.552 411.74C394.815 411.997 395.019 412.291 395.165 412.624C395.311 412.956 395.383 413.309 395.383 413.682V418.836C395.383 419.005 395.325 419.145 395.208 419.256C395.092 419.367 394.955 419.423 394.797 419.423C394.634 419.423 394.494 419.367 394.377 419.256C394.266 419.145 394.211 419.005 394.211 418.836V413.779C394.211 413.569 394.17 413.364 394.088 413.166C394.007 412.962 393.893 412.784 393.747 412.632C393.601 412.481 393.429 412.364 393.231 412.282C393.033 412.195 392.823 412.151 392.601 412.151C392.397 412.151 392.201 412.189 392.015 412.265C391.834 412.341 391.67 412.449 391.525 412.589C391.221 412.892 391.058 413.245 391.035 413.647C391.035 413.665 391.037 413.679 391.043 413.691V413.735V418.828C391.043 418.991 390.985 419.131 390.868 419.248C390.752 419.358 390.615 419.414 390.457 419.414C390.294 419.414 390.157 419.358 390.046 419.248C389.935 419.131 389.88 418.991 389.88 418.828V413.787C389.88 413.572 389.839 413.364 389.757 413.166C389.681 412.968 389.57 412.79 389.424 412.632C389.279 412.475 389.109 412.355 388.917 412.274C388.724 412.186 388.517 412.142 388.296 412.142C388.092 412.142 387.896 412.18 387.709 412.256C387.529 412.332 387.365 412.437 387.219 412.571C387.079 412.705 386.963 412.863 386.869 413.044C386.782 413.224 386.729 413.411 386.712 413.604C386.712 413.621 386.715 413.636 386.721 413.647V413.7L386.703 418.836C386.697 419.005 386.636 419.145 386.519 419.256C386.409 419.367 386.274 419.423 386.117 419.423Z" fill="black"/>
<path d="M400.507 419.528C399.93 419.528 399.384 419.42 398.871 419.204C398.358 418.982 397.905 418.673 397.515 418.276C397.124 417.885 396.82 417.43 396.605 416.911C396.389 416.392 396.281 415.844 396.281 415.266C396.281 414.683 396.389 414.132 396.605 413.612C396.82 413.087 397.124 412.627 397.515 412.23C397.905 411.833 398.358 411.527 398.871 411.311C399.384 411.089 399.93 410.979 400.507 410.979C401.091 410.979 401.639 411.089 402.152 411.311C402.666 411.527 403.118 411.833 403.509 412.23C403.894 412.621 404.194 413.079 404.41 413.604C404.626 414.129 404.734 414.683 404.734 415.266V418.863C404.734 419.032 404.675 419.175 404.559 419.291C404.442 419.408 404.299 419.466 404.13 419.466C403.961 419.466 403.824 419.411 403.719 419.3C403.614 419.183 403.561 419.038 403.561 418.863L403.552 418.233C403.156 418.647 402.698 418.968 402.178 419.195C401.665 419.417 401.108 419.528 400.507 419.528ZM400.507 418.364C400.939 418.364 401.341 418.285 401.715 418.128C402.094 417.964 402.421 417.737 402.695 417.445C402.969 417.159 403.182 416.83 403.334 416.456C403.485 416.077 403.561 415.68 403.561 415.266C403.561 414.846 403.485 414.447 403.334 414.067C403.182 413.682 402.969 413.35 402.695 413.07C402.415 412.784 402.088 412.562 401.715 412.405C401.341 412.242 400.939 412.16 400.507 412.16C400.081 412.16 399.682 412.242 399.308 412.405C398.941 412.562 398.617 412.784 398.337 413.07C398.057 413.356 397.838 413.688 397.681 414.067C397.529 414.447 397.453 414.846 397.453 415.266C397.453 415.68 397.529 416.077 397.681 416.456C397.838 416.83 398.057 417.159 398.337 417.445C398.617 417.737 398.941 417.964 399.308 418.128C399.682 418.285 400.081 418.364 400.507 418.364Z" fill="black"/>
<path d="M410.391 419.536C409.802 419.536 409.245 419.431 408.72 419.221C408.201 419.005 407.746 418.708 407.355 418.329C406.958 417.944 406.649 417.498 406.427 416.99C406.206 416.477 406.095 415.928 406.095 415.345V409.054C406.095 408.89 406.153 408.75 406.27 408.634C406.386 408.517 406.523 408.458 406.681 408.458C406.844 408.458 406.984 408.517 407.101 408.634C407.224 408.744 407.285 408.884 407.285 409.054V411.057H411.144C411.307 411.057 411.447 411.116 411.564 411.232C411.68 411.349 411.739 411.489 411.739 411.652C411.739 411.81 411.68 411.944 411.564 412.055C411.453 412.16 411.313 412.212 411.144 412.212H407.285V415.354C407.285 415.774 407.364 416.167 407.521 416.535C407.679 416.903 407.9 417.223 408.186 417.498C408.472 417.772 408.801 417.988 409.175 418.145C409.554 418.297 409.959 418.373 410.391 418.373C410.782 418.373 411.144 418.314 411.476 418.198C411.809 418.075 412.121 417.885 412.412 417.629C412.494 417.565 412.567 417.518 412.631 417.489C412.695 417.454 412.774 417.436 412.867 417.436C413.007 417.436 413.127 417.492 413.226 417.603C413.331 417.708 413.384 417.836 413.384 417.988C413.384 418.075 413.363 418.163 413.322 418.25C413.287 418.338 413.235 418.413 413.165 418.478C412.797 418.828 412.377 419.093 411.905 419.274C411.438 419.449 410.934 419.536 410.391 419.536Z" fill="black"/>
<path d="M417.886 419.528C417.309 419.528 416.757 419.417 416.232 419.195C415.713 418.973 415.258 418.667 414.867 418.276C414.471 417.885 414.161 417.43 413.94 416.911C413.718 416.386 413.607 415.835 413.607 415.257C413.607 414.68 413.718 414.132 413.94 413.612C414.161 413.087 414.471 412.627 414.867 412.23C415.258 411.839 415.713 411.533 416.232 411.311C416.757 411.089 417.309 410.979 417.886 410.979C418.458 410.979 419.003 411.089 419.522 411.311C420.048 411.533 420.508 411.839 420.905 412.23C421.296 412.621 421.602 413.076 421.824 413.595C422.051 414.114 422.168 414.66 422.174 415.231C422.174 415.389 422.121 415.523 422.016 415.634C421.911 415.739 421.774 415.791 421.605 415.791H414.902C414.949 416.153 415.057 416.494 415.226 416.815C415.401 417.13 415.623 417.407 415.891 417.646C416.165 417.885 416.472 418.072 416.81 418.206C417.154 418.34 417.513 418.408 417.886 418.408C418.236 418.408 418.522 418.375 418.744 418.311C418.942 418.259 419.175 418.157 419.444 418.005C419.56 417.935 419.68 417.9 419.803 417.9C419.96 417.9 420.094 417.964 420.205 418.093C420.316 418.215 420.371 418.355 420.371 418.513C420.371 418.723 420.278 418.88 420.091 418.985C419.753 419.178 419.435 419.312 419.137 419.388C418.764 419.481 418.347 419.528 417.886 419.528ZM420.984 414.811C420.937 414.426 420.826 414.07 420.651 413.744C420.482 413.411 420.258 413.122 419.978 412.877C419.698 412.632 419.38 412.443 419.024 412.309C418.668 412.169 418.295 412.099 417.904 412.099C417.507 412.099 417.131 412.169 416.775 412.309C416.425 412.449 416.113 412.644 415.839 412.895C415.57 413.14 415.352 413.429 415.182 413.761C415.013 414.094 414.908 414.444 414.867 414.811H420.984Z" fill="black"/>
<path fill-rule="evenodd" clip-rule="evenodd" d="M481 0H0V481H481V0ZM447 34H34V447H447V34Z" fill="#608D00"/>
</g>
<defs>
<clipPath id="clip0_711_672">
<rect width="481" height="481" fill="white"/>
</clipPath>
</defs>
</svg>
