<svg width="481" height="481" viewBox="0 0 481 481" fill="none" xmlns="http://www.w3.org/2000/svg">
<g clip-path="url(#clip0_711_672)">
<rect width="481" height="481" fill="white"/>
<path d="M496.779 268.729L486.344 307.669L399.811 284.483L410.245 245.542L496.779 268.729Z" fill="#2E3FDE"/>
<path d="M459.545 113.439C451.952 126.59 439.351 133.53 431.398 128.939C423.446 124.347 423.155 109.964 430.748 96.8128C438.341 83.6614 450.943 76.7218 458.895 81.313C466.847 85.9041 467.138 100.287 459.545 113.439Z" fill="#FFC931"/>
<path d="M80.8106 480.352L114.948 417L146.57 451.118L80.8106 480.352Z" fill="#D82C30"/>
<path d="M282.506 12.9592L310.532 47.5448L283.521 57.4633L282.506 12.9592Z" fill="#D82C30"/>
<path d="M88.2394 55.6202C88.2394 68.1127 78.1122 78.2399 65.6197 78.2399C53.1272 78.2399 43 68.1127 43 55.6202C43 43.1277 53.1272 33.0005 65.6197 33.0005C78.1122 33.0005 88.2394 43.1277 88.2394 55.6202Z" fill="#608D00"/>
<path d="M-0.0198364 213L42.8189 225.981L29.8387 268.819L-13 255.839L-0.0198364 213Z" fill="#FFC931"/>
<path d="M245.626 137.975C241.96 136.848 238.04 136.848 234.374 137.975L201.531 148.069C184.653 153.257 168.625 160.883 153.953 170.708C144.627 176.952 149.047 191.5 160.271 191.5H319.729C330.953 191.5 335.374 176.952 326.048 170.708C311.376 160.883 295.347 153.257 278.469 148.069L245.626 137.975Z" fill="black"/>
<path d="M154.75 340C154.75 335.443 158.444 331.75 163 331.75H317C321.556 331.75 325.25 335.443 325.25 340C325.25 344.556 321.556 348.25 317 348.25H163C158.444 348.25 154.75 344.556 154.75 340Z" fill="black"/>
<path d="M176.75 296C176.75 300.556 180.444 304.25 185 304.25C189.556 304.25 193.25 300.556 193.25 296L193.25 230C193.25 225.443 189.556 221.75 185 221.75C180.444 221.75 176.75 225.443 176.75 230L176.75 296Z" fill="black"/>
<path d="M240 304.25C235.444 304.25 231.75 300.556 231.75 296L231.75 230C231.75 225.443 235.444 221.75 240 221.75C244.556 221.75 248.25 225.443 248.25 230V296C248.25 300.556 244.556 304.25 240 304.25Z" fill="black"/>
<path d="M286.75 296C286.75 300.556 290.444 304.25 295 304.25C299.556 304.25 303.25 300.556 303.25 296V230C303.25 225.443 299.556 221.75 295 221.75C290.444 221.75 286.75 225.443 286.75 230V296Z" fill="black"/>
<path fill-rule="evenodd" clip-rule="evenodd" d="M227.566 128.346C231.759 127.058 236.241 127.058 240.434 128.346L273.277 138.441C290.411 143.707 306.683 151.449 321.577 161.423C333.162 169.18 327.671 187.25 313.729 187.25H154.271C140.329 187.25 134.838 169.18 146.423 161.423C161.317 151.449 177.589 143.707 194.723 138.441L227.566 128.346ZM235.586 144.118C234.553 143.8 233.447 143.8 232.414 144.118L199.571 154.213C186.582 158.205 174.137 163.76 162.508 170.75H305.492C293.863 163.76 281.418 158.205 268.429 154.213L235.586 144.118Z" fill="#C4C4C4"/>
<path d="M148.75 333C148.75 328.443 152.444 324.75 157 324.75H311C315.556 324.75 319.25 328.443 319.25 333C319.25 337.556 315.556 341.25 311 341.25H157C152.444 341.25 148.75 337.556 148.75 333Z" fill="#C4C4C4"/>
<path d="M170.75 289C170.75 293.556 174.444 297.25 179 297.25C183.556 297.25 187.25 293.556 187.25 289L187.25 223C187.25 218.443 183.556 214.75 179 214.75C174.444 214.75 170.75 218.443 170.75 223L170.75 289Z" fill="#C4C4C4"/>
<path d="M234 297.25C229.444 297.25 225.75 293.556 225.75 289L225.75 223C225.75 218.443 229.444 214.75 234 214.75C238.556 214.75 242.25 218.443 242.25 223V289C242.25 293.556 238.556 297.25 234 297.25Z" fill="#C4C4C4"/>
<path d="M280.75 289C280.75 293.556 284.444 297.25 289 297.25C293.556 297.25 297.25 293.556 297.25 289V223C297.25 218.443 293.556 214.75 289 214.75C284.444 214.75 280.75 218.443 280.75 223V289Z" fill="#C4C4C4"/>
<path d="M357.512 423.51H370.914V436.912H357.512V423.51Z" fill="#FFC931"/>
<path d="M372.062 421.786C372.062 424.43 369.92 426.573 367.276 426.573C364.633 426.573 362.49 424.43 362.49 421.786C362.49 419.143 364.633 417 367.276 417C369.92 417 372.062 419.143 372.062 421.786Z" fill="#D82D31"/>
<path d="M355.061 428.485L359.123 432.547L355.061 436.608L351 432.547L355.061 428.485Z" fill="#688731"/>
<path d="M376.658 435.955L367.755 441.095V430.814L376.658 435.955Z" fill="#2E3FDE"/>
<path d="M388.047 434.528C387.469 434.528 386.924 434.42 386.41 434.204C385.897 433.982 385.445 433.673 385.054 433.276C384.663 432.885 384.36 432.43 384.144 431.911C383.928 431.392 383.82 430.844 383.82 430.266C383.82 429.683 383.928 429.132 384.144 428.612C384.36 428.087 384.663 427.627 385.054 427.23C385.445 426.833 385.897 426.527 386.41 426.311C386.924 426.089 387.469 425.979 388.047 425.979C388.63 425.979 389.178 426.089 389.692 426.311C390.205 426.527 390.657 426.833 391.048 427.23C391.433 427.621 391.733 428.079 391.949 428.604C392.165 429.129 392.273 429.683 392.273 430.266V433.863C392.273 434.032 392.215 434.175 392.098 434.291C391.981 434.408 391.838 434.466 391.669 434.466C391.5 434.466 391.363 434.411 391.258 434.3C391.153 434.183 391.101 434.038 391.101 433.863L391.092 433.233C390.695 433.647 390.237 433.968 389.718 434.195C389.205 434.417 388.648 434.528 388.047 434.528ZM388.047 433.364C388.478 433.364 388.881 433.285 389.254 433.128C389.633 432.964 389.96 432.737 390.234 432.445C390.508 432.159 390.721 431.83 390.873 431.456C391.025 431.077 391.101 430.68 391.101 430.266C391.101 429.846 391.025 429.447 390.873 429.067C390.721 428.682 390.508 428.35 390.234 428.07C389.954 427.784 389.628 427.562 389.254 427.405C388.881 427.242 388.478 427.16 388.047 427.16C387.621 427.16 387.221 427.242 386.848 427.405C386.48 427.562 386.157 427.784 385.877 428.07C385.597 428.356 385.378 428.688 385.22 429.067C385.069 429.447 384.993 429.846 384.993 430.266C384.993 430.68 385.069 431.077 385.22 431.456C385.378 431.83 385.597 432.159 385.877 432.445C386.157 432.737 386.48 432.964 386.848 433.128C387.221 433.285 387.621 433.364 388.047 433.364Z" fill="black"/>
<path d="M394.238 434.423C394.075 434.423 393.932 434.367 393.809 434.256C393.693 434.145 393.634 434.005 393.634 433.836V430.441C393.634 429.84 393.748 429.269 393.975 428.726C394.209 428.184 394.53 427.705 394.938 427.291C395.352 426.877 395.828 426.556 396.364 426.329C396.901 426.095 397.467 425.979 398.062 425.979H398.132C398.319 425.979 398.464 426.034 398.569 426.145C398.68 426.25 398.736 426.39 398.736 426.565C398.736 426.734 398.677 426.874 398.561 426.985C398.45 427.09 398.307 427.142 398.132 427.142H398.062C397.63 427.142 397.216 427.227 396.819 427.396C396.423 427.565 396.073 427.802 395.769 428.105C395.466 428.408 395.227 428.764 395.052 429.172C394.883 429.575 394.798 429.998 394.798 430.441V433.836C394.798 434.005 394.743 434.145 394.632 434.256C394.527 434.367 394.395 434.423 394.238 434.423Z" fill="black"/>
<path d="M403.754 434.536C403.165 434.536 402.608 434.431 402.083 434.221C401.564 434.005 401.109 433.708 400.718 433.329C400.321 432.944 400.012 432.498 399.791 431.99C399.569 431.477 399.458 430.928 399.458 430.345V424.054C399.458 423.89 399.516 423.75 399.633 423.634C399.75 423.517 399.887 423.458 400.044 423.458C400.208 423.458 400.348 423.517 400.464 423.634C400.587 423.744 400.648 423.884 400.648 424.054V426.057H404.507C404.67 426.057 404.81 426.116 404.927 426.232C405.044 426.349 405.102 426.489 405.102 426.652C405.102 426.81 405.044 426.944 404.927 427.055C404.816 427.16 404.676 427.212 404.507 427.212H400.648V430.354C400.648 430.774 400.727 431.167 400.884 431.535C401.042 431.903 401.263 432.223 401.549 432.498C401.835 432.772 402.165 432.988 402.538 433.145C402.917 433.297 403.323 433.373 403.754 433.373C404.145 433.373 404.507 433.314 404.839 433.198C405.172 433.075 405.484 432.885 405.776 432.629C405.857 432.565 405.93 432.518 405.994 432.489C406.059 432.454 406.137 432.436 406.231 432.436C406.371 432.436 406.49 432.492 406.589 432.603C406.694 432.708 406.747 432.836 406.747 432.988C406.747 433.075 406.727 433.163 406.686 433.25C406.651 433.338 406.598 433.413 406.528 433.478C406.161 433.828 405.741 434.093 405.268 434.274C404.802 434.449 404.297 434.536 403.754 434.536Z" fill="black"/>
<path d="M408.117 434.423C407.954 434.423 407.814 434.367 407.697 434.256C407.586 434.145 407.531 434.005 407.531 433.836V428.691C407.531 428.318 407.601 427.965 407.741 427.632C407.881 427.3 408.079 427.005 408.336 426.749C408.592 426.492 408.884 426.294 409.211 426.154C409.543 426.014 409.896 425.944 410.269 425.944C410.695 425.944 411.095 426.04 411.468 426.232C411.847 426.419 412.171 426.676 412.44 427.002C412.696 426.676 413.011 426.419 413.385 426.232C413.764 426.04 414.166 425.944 414.592 425.944C414.96 425.944 415.313 426.014 415.651 426.154C415.995 426.294 416.295 426.489 416.552 426.74C416.815 426.997 417.019 427.291 417.165 427.624C417.311 427.956 417.383 428.309 417.383 428.682V433.836C417.383 434.005 417.325 434.145 417.208 434.256C417.092 434.367 416.955 434.423 416.797 434.423C416.634 434.423 416.494 434.367 416.377 434.256C416.266 434.145 416.211 434.005 416.211 433.836V428.779C416.211 428.569 416.17 428.364 416.088 428.166C416.007 427.962 415.893 427.784 415.747 427.632C415.601 427.481 415.429 427.364 415.231 427.282C415.033 427.195 414.823 427.151 414.601 427.151C414.397 427.151 414.201 427.189 414.015 427.265C413.834 427.341 413.67 427.449 413.525 427.589C413.221 427.892 413.058 428.245 413.035 428.647C413.035 428.665 413.037 428.679 413.043 428.691V428.735V433.828C413.043 433.991 412.985 434.131 412.868 434.248C412.752 434.358 412.615 434.414 412.457 434.414C412.294 434.414 412.157 434.358 412.046 434.248C411.935 434.131 411.88 433.991 411.88 433.828V428.787C411.88 428.572 411.839 428.364 411.757 428.166C411.681 427.968 411.57 427.79 411.424 427.632C411.279 427.475 411.109 427.355 410.917 427.274C410.724 427.186 410.517 427.142 410.296 427.142C410.092 427.142 409.896 427.18 409.709 427.256C409.529 427.332 409.365 427.437 409.219 427.571C409.079 427.705 408.963 427.863 408.869 428.044C408.782 428.224 408.729 428.411 408.712 428.604C408.712 428.621 408.715 428.636 408.721 428.647V428.7L408.703 433.836C408.697 434.005 408.636 434.145 408.519 434.256C408.409 434.367 408.274 434.423 408.117 434.423Z" fill="black"/>
<path d="M422.507 434.528C421.93 434.528 421.384 434.42 420.871 434.204C420.358 433.982 419.905 433.673 419.515 433.276C419.124 432.885 418.82 432.43 418.605 431.911C418.389 431.392 418.281 430.844 418.281 430.266C418.281 429.683 418.389 429.132 418.605 428.612C418.82 428.087 419.124 427.627 419.515 427.23C419.905 426.833 420.358 426.527 420.871 426.311C421.384 426.089 421.93 425.979 422.507 425.979C423.091 425.979 423.639 426.089 424.152 426.311C424.666 426.527 425.118 426.833 425.509 427.23C425.894 427.621 426.194 428.079 426.41 428.604C426.626 429.129 426.734 429.683 426.734 430.266V433.863C426.734 434.032 426.675 434.175 426.559 434.291C426.442 434.408 426.299 434.466 426.13 434.466C425.961 434.466 425.824 434.411 425.719 434.3C425.614 434.183 425.561 434.038 425.561 433.863L425.552 433.233C425.156 433.647 424.698 433.968 424.178 434.195C423.665 434.417 423.108 434.528 422.507 434.528ZM422.507 433.364C422.939 433.364 423.341 433.285 423.715 433.128C424.094 432.964 424.421 432.737 424.695 432.445C424.969 432.159 425.182 431.83 425.334 431.456C425.485 431.077 425.561 430.68 425.561 430.266C425.561 429.846 425.485 429.447 425.334 429.067C425.182 428.682 424.969 428.35 424.695 428.07C424.415 427.784 424.088 427.562 423.715 427.405C423.341 427.242 422.939 427.16 422.507 427.16C422.081 427.16 421.682 427.242 421.308 427.405C420.941 427.562 420.617 427.784 420.337 428.07C420.057 428.356 419.838 428.688 419.681 429.067C419.529 429.447 419.453 429.846 419.453 430.266C419.453 430.68 419.529 431.077 419.681 431.456C419.838 431.83 420.057 432.159 420.337 432.445C420.617 432.737 420.941 432.964 421.308 433.128C421.682 433.285 422.081 433.364 422.507 433.364Z" fill="black"/>
<path d="M432.391 434.536C431.802 434.536 431.245 434.431 430.72 434.221C430.201 434.005 429.746 433.708 429.355 433.329C428.958 432.944 428.649 432.498 428.427 431.99C428.206 431.477 428.095 430.928 428.095 430.345V424.054C428.095 423.89 428.153 423.75 428.27 423.634C428.386 423.517 428.523 423.458 428.681 423.458C428.844 423.458 428.984 423.517 429.101 423.634C429.224 423.744 429.285 423.884 429.285 424.054V426.057H433.144C433.307 426.057 433.447 426.116 433.564 426.232C433.68 426.349 433.739 426.489 433.739 426.652C433.739 426.81 433.68 426.944 433.564 427.055C433.453 427.16 433.313 427.212 433.144 427.212H429.285V430.354C429.285 430.774 429.364 431.167 429.521 431.535C429.679 431.903 429.9 432.223 430.186 432.498C430.472 432.772 430.801 432.988 431.175 433.145C431.554 433.297 431.959 433.373 432.391 433.373C432.782 433.373 433.144 433.314 433.476 433.198C433.809 433.075 434.121 432.885 434.412 432.629C434.494 432.565 434.567 432.518 434.631 432.489C434.695 432.454 434.774 432.436 434.867 432.436C435.007 432.436 435.127 432.492 435.226 432.603C435.331 432.708 435.384 432.836 435.384 432.988C435.384 433.075 435.363 433.163 435.322 433.25C435.287 433.338 435.235 433.413 435.165 433.478C434.797 433.828 434.377 434.093 433.905 434.274C433.438 434.449 432.934 434.536 432.391 434.536Z" fill="black"/>
<path d="M439.886 434.528C439.309 434.528 438.757 434.417 438.232 434.195C437.713 433.973 437.258 433.667 436.867 433.276C436.471 432.885 436.161 432.43 435.94 431.911C435.718 431.386 435.607 430.835 435.607 430.257C435.607 429.68 435.718 429.132 435.94 428.612C436.161 428.087 436.471 427.627 436.867 427.23C437.258 426.839 437.713 426.533 438.232 426.311C438.757 426.089 439.309 425.979 439.886 425.979C440.458 425.979 441.003 426.089 441.522 426.311C442.048 426.533 442.508 426.839 442.905 427.23C443.296 427.621 443.602 428.076 443.824 428.595C444.051 429.114 444.168 429.66 444.174 430.231C444.174 430.389 444.121 430.523 444.016 430.634C443.911 430.739 443.774 430.791 443.605 430.791H436.902C436.949 431.153 437.057 431.494 437.226 431.815C437.401 432.13 437.623 432.407 437.891 432.646C438.165 432.885 438.472 433.072 438.81 433.206C439.154 433.34 439.513 433.408 439.886 433.408C440.236 433.408 440.522 433.375 440.744 433.311C440.942 433.259 441.175 433.157 441.444 433.005C441.56 432.935 441.68 432.9 441.803 432.9C441.96 432.9 442.094 432.964 442.205 433.093C442.316 433.215 442.371 433.355 442.371 433.513C442.371 433.723 442.278 433.88 442.091 433.985C441.753 434.178 441.435 434.312 441.137 434.388C440.764 434.481 440.347 434.528 439.886 434.528ZM442.984 429.811C442.937 429.426 442.826 429.07 442.651 428.744C442.482 428.411 442.258 428.122 441.978 427.877C441.698 427.632 441.38 427.443 441.024 427.309C440.668 427.169 440.295 427.099 439.904 427.099C439.507 427.099 439.131 427.169 438.775 427.309C438.425 427.449 438.113 427.644 437.839 427.895C437.57 428.14 437.352 428.429 437.182 428.761C437.013 429.094 436.908 429.444 436.867 429.811H442.984Z" fill="black"/>
</g>
<defs>
<clipPath id="clip0_711_672">
<rect width="481" height="481" fill="white"/>
</clipPath>
</defs>
</svg>
