<svg width="24" height="24" viewBox="0 0 24 24" fill="none" xmlns="http://www.w3.org/2000/svg">
<path fill-rule="evenodd" clip-rule="evenodd" d="M11.75 10.75C13.4069 10.75 14.75 9.40685 14.75 7.75C14.75 6.09315 13.4069 4.75 11.75 4.75C10.0931 4.75 8.75 6.09315 8.75 7.75C8.75 9.40685 10.0931 10.75 11.75 10.75ZM11.75 12.25C14.2353 12.25 16.25 10.2353 16.25 7.75C16.25 5.26472 14.2353 3.25 11.75 3.25C9.26472 3.25 7.25 5.26472 7.25 7.75C7.25 10.2353 9.26472 12.25 11.75 12.25Z" fill="black"/>
<path fill-rule="evenodd" clip-rule="evenodd" d="M7.83421 14.3807C9.34574 13.7449 10.8199 13.5275 11.75 13.5275C12.1642 13.5275 12.5 13.8633 12.5 14.2775C12.5 14.6917 12.1642 15.0275 11.75 15.0275C11.0134 15.0275 9.73759 15.2074 8.41579 15.7633C7.10002 16.3168 5.7819 17.2239 4.88476 18.6495C4.66414 19 4.2011 19.1054 3.85053 18.8848C3.49996 18.6641 3.39462 18.2011 3.61524 17.8505C4.71809 16.0981 6.31665 15.019 7.83421 14.3807Z" fill="black"/>
<path fill-rule="evenodd" clip-rule="evenodd" d="M13 16C13 16.6479 13.2054 17.2479 13.5546 17.7383C13.7492 18.0115 13.9885 18.2508 14.2617 18.4454C14.7521 18.7946 15.3521 19 16 19C17.6569 19 19 17.6569 19 16C19 15.3521 18.7946 14.7521 18.4454 14.2617C18.2508 13.9885 18.0115 13.7492 17.7383 13.5546C17.2479 13.2054 16.6479 13 16 13C14.3431 13 13 14.3431 13 16ZM16 18C15.6291 18 15.2818 17.899 14.984 17.7231L17.7231 14.984C17.899 15.2818 18 15.6291 18 16C18 17.1046 17.1046 18 16 18ZM14.2769 17.016L17.016 14.2769C16.7182 14.101 16.3709 14 16 14C14.8954 14 14 14.8954 14 16C14 16.3709 14.101 16.7182 14.2769 17.016Z" fill="black"/>
</svg>
