<svg width="24" height="24" viewBox="0 0 24 24" fill="none" xmlns="http://www.w3.org/2000/svg">
<path fill-rule="evenodd" clip-rule="evenodd" d="M11.75 10.75C13.4069 10.75 14.75 9.40685 14.75 7.75C14.75 6.09315 13.4069 4.75 11.75 4.75C10.0931 4.75 8.75 6.09315 8.75 7.75C8.75 9.40685 10.0931 10.75 11.75 10.75ZM11.75 12.25C14.2353 12.25 16.25 10.2353 16.25 7.75C16.25 5.26472 14.2353 3.25 11.75 3.25C9.26472 3.25 7.25 5.26472 7.25 7.75C7.25 10.2353 9.26472 12.25 11.75 12.25Z" fill="black"/>
<path fill-rule="evenodd" clip-rule="evenodd" d="M7.83421 14.3807C9.34574 13.7449 10.8199 13.5275 11.75 13.5275C12.1642 13.5275 12.5 13.8633 12.5 14.2775C12.5 14.6917 12.1642 15.0275 11.75 15.0275C11.0134 15.0275 9.73759 15.2074 8.41579 15.7633C7.10002 16.3168 5.7819 17.2239 4.88476 18.6495C4.66414 19 4.2011 19.1054 3.85053 18.8848C3.49996 18.6641 3.39462 18.2011 3.61524 17.8505C4.71809 16.0981 6.31665 15.019 7.83421 14.3807Z" fill="black"/>
<path fill-rule="evenodd" clip-rule="evenodd" d="M15.6658 14.3807C14.1543 13.7449 12.6801 13.5275 11.75 13.5275C11.3358 13.5275 11 13.8633 11 14.2775C11 14.6917 11.3358 15.0275 11.75 15.0275C12.4866 15.0275 13.7624 15.2074 15.0842 15.7633C16.4 16.3168 17.7181 17.2239 18.6152 18.6495C18.8359 19 19.2989 19.1054 19.6495 18.8848C20 18.6641 20.1054 18.2011 19.8848 17.8505C18.7819 16.0981 17.1834 15.019 15.6658 14.3807Z" fill="black"/>
<path d="M19.5 9C19.8186 9 20.0769 9.2583 20.0769 9.57692V10.9231H21.4231C21.7417 10.9231 22 11.1814 22 11.5C22 11.8186 21.7417 12.0769 21.4231 12.0769H20.0769V13.4231C20.0769 13.7417 19.8186 14 19.5 14C19.1814 14 18.9231 13.7417 18.9231 13.4231V12.0769H17.5769C17.2583 12.0769 17 11.8186 17 11.5C17 11.1814 17.2583 10.9231 17.5769 10.9231H18.9231V9.57692C18.9231 9.2583 19.1814 9 19.5 9Z" fill="black"/>
</svg>
