<svg width="19" height="26" viewBox="0 0 19 26" fill="none" xmlns="http://www.w3.org/2000/svg">
<path d="M7 12.25C6.58579 12.25 6.25 12.5858 6.25 13C6.25 13.4142 6.58579 13.75 7 13.75V12.25ZM18.5303 13.5303C18.8232 13.2374 18.8232 12.7626 18.5303 12.4697L13.7574 7.6967C13.4645 7.40381 12.9896 7.40381 12.6967 7.6967C12.4038 7.98959 12.4038 8.46447 12.6967 8.75736L16.9393 13L12.6967 17.2426C12.4038 17.5355 12.4038 18.0104 12.6967 18.3033C12.9896 18.5962 13.4645 18.5962 13.7574 18.3033L18.5303 13.5303ZM7 13.75H18V12.25H7V13.75Z" fill="white"/>
<line x1="6.75" y1="4.22998" x2="13.25" y2="4.22998" stroke="white" stroke-width="1.5" stroke-linecap="round"/>
<line x1="6.75" y1="21.25" x2="13.25" y2="21.25" stroke="white" stroke-width="1.5" stroke-linecap="round"/>
<mask id="mask0_788_704" style="mask-type:alpha" maskUnits="userSpaceOnUse" x="0" y="0" width="12" height="26">
<rect width="12" height="25.5" rx="2" fill="white"/>
</mask>
<g mask="url(#mask0_788_704)">
<rect x="2.75" y="4.22754" width="13.5" height="17.0455" rx="1.25" stroke="white" stroke-width="1.5" stroke-linecap="round" stroke-linejoin="round"/>
</g>
</svg>
